<?xml version="1.0" encoding="UTF-8" standalone="no"?>
<svg
   width="943"
   height="463.5"
   viewBox="4.5 6.5 947.5 470"
   fill="none"
   version="1.1"
   id="svg43"
   sodipodi:docname="2024_Field.svg"
   inkscape:version="1.3 (0e150ed6c4, 2023-07-21)"
   xmlns:inkscape="http://www.inkscape.org/namespaces/inkscape"
   xmlns:sodipodi="http://sodipodi.sourceforge.net/DTD/sodipodi-0.dtd"
   xmlns="http://www.w3.org/2000/svg"
   xmlns:svg="http://www.w3.org/2000/svg">
  <defs
     id="defs43" />
  <sodipodi:namedview
     id="namedview43"
     pagecolor="#ffffff"
     bordercolor="#000000"
     borderopacity="0.25"
     inkscape:showpageshadow="2"
     inkscape:pageopacity="0.0"
     inkscape:pagecheckerboard="0"
     inkscape:deskcolor="#d1d1d1"
     inkscape:zoom="1.4358431"
     inkscape:cx="471.5"
     inkscape:cy="270.57275"
     inkscape:window-width="1920"
     inkscape:window-height="991"
     inkscape:window-x="-9"
     inkscape:window-y="-9"
     inkscape:window-maximized="1"
     inkscape:current-layer="svg43" />
  <rect
     x="477.5"
     y="6.5"
     width="3"
     height="475"
     fill="#292929"
     stroke="#292929"
     id="rect1"
     style="fill:#ffffff;fill-opacity:1;stroke:#ffffff;stroke-opacity:1" />
  <circle
     cx="479"
     cy="52"
     r="8.5"
     fill="none"
     id="circle1"
     style="stroke:#d87000;stroke-opacity:1;stroke-width:2.5"/>
  <circle
     cx="479"
     cy="148"
     r="8.5"
     fill="none"
     id="circle2"
     style="stroke:#d87000;stroke-opacity:1;stroke-width:2.5"/>
  <circle
     cx="479"
     cy="244"
     r="8.5"
     fill="none"
     id="circle3"
     style="stroke:#d87000;stroke-opacity:1;stroke-width:2.5"/>
  <circle
     cx="479"
     cy="340"
     r="8.5"
     fill="none"
     id="circle4"
     style="stroke:#d87000;stroke-opacity:1;stroke-width:2.5" />
  <circle
     cx="479"
     cy="436"
     r="8.5"
     fill="none"
     id="circle5"
     style="stroke:#d87000;stroke-opacity:1;stroke-width:2.5" />
  <circle
     cx="171"
     cy="244"
     r="8.5"
     fill="none"
     id="circle6"
     style="stroke:#d87000;stroke-opacity:1;stroke-width:2.5" />
  <circle
     cx="171"
     cy="78"
     r="8.5"
     fill="none"
     id="circle7"
     style="stroke:#d87000;stroke-opacity:1;stroke-width:2.5"/>
  <circle
     cx="171"
     cy="161"
     r="8.5"
     fill="none"
     id="circle8"
     style="stroke:#d87000;stroke-opacity:1;stroke-width:2.5"/>
  <rect
     x="338"
     y="6"
     width="4"
     height="476"
     fill="#0047A6"
     id="rect8" />
  <path
     d="M310.167 198.589L310.167 288.078L232.667 243.334L310.167 198.589Z"
     fill="#555555"
     id="path9" />
  <rect
     x="348.356"
     y="164.531"
     width="32"
     height="32"
     transform="rotate(120 348.356 164.531)"
     fill="#262626"
     id="rect9" />
  <rect
     x="183"
     y="228"
     width="32"
     height="32"
     fill="#262626"
     id="rect10" />
  <rect
     x="320.644"
     y="339.469"
     width="32"
     height="32"
     transform="rotate(-120 320.644 339.469)"
     fill="#262626"
     id="rect11" />
  <path
     d="M187.252 251.298L187.252 237.369L325.976 156.276L339.772 164.241L339.772 323.426L325.976 331.391L187.252 251.298Z"
     stroke="#0047A6"
     stroke-width="5"
     id="path8" />
  <path
     d="M337.062 166.094L324.938 159.094C323.981 158.541 322.758 158.869 322.206 159.826L278.804 235H192C190.895 235 190 235.895 190 237V251C190 252.105 190.895 253 192 253H278.804L322.206 328.174C322.758 329.131 323.981 329.459 324.938 328.906L337.062 321.906C338.019 321.354 338.347 320.131 337.794 319.174L294.392 244L337.794 168.826C338.347 167.869 338.019 166.646 337.062 166.094Z"
     fill="#555555"
     id="path11" />
  <path
     d="M115 33V480"
     stroke="#292929"
     stroke-width="4"
     stroke-linejoin="round"
     id="path12"
     style="stroke:#ffffff;stroke-opacity:1" />
  <path
     d="M7 33H193V8"
     stroke="#0047A6"
     stroke-width="4"
     stroke-linejoin="round"
     id="path13" />
  <path
     d="M58 132L7 155V168L58 191V132Z"
     fill="#292929"
     id="path14" />
  <path
     d="M7 168V221L58 191L7 168Z"
     fill="#D9D9D9"
     id="path15" />
  <path
     d="M7 168V221L58 191L7 168Z"
     fill="#0047A6"
     id="path16" />
  <path
     d="M7 102V155L58 132L7 102Z"
     fill="#D9D9D9"
     id="path17" />
  <path
     d="M7 102V155L58 132L7 102Z"
     fill="#0047A6"
     id="path18" />
  <path
     d="M7 127H31C32.1046 127 33 127.895 33 129V194C33 195.105 32.1046 196 31 196H7V127Z"
     fill="#585858"
     id="path19" />
  <path
     d="M141 6.5L141 8.5C141 9.60457 140.105 10.5 139 10.5L82 10.5C80.8954 10.5 80 9.60457 80 8.5L80 6.5L141 6.5Z"
     fill="#585858"
     id="path20" />
  <path
     d="M10.9999 420.402L11.952 418.756C12.505 417.8 13.7292 417.472 14.6862 418.023L40.6788 433.003C41.6358 433.554 41.9633 434.777 41.4102 435.733L40.4581 437.379L10.9999 420.402Z"
     fill="#585858"
     id="path21" />
  <path
     d="M42.1794 438.404L43.1315 436.758C43.6846 435.801 44.9087 435.473 45.8658 436.025L71.8583 451.004C72.8154 451.556 73.1428 452.778 72.5898 453.734L71.6377 455.38L42.1794 438.404Z"
     fill="#585858"
     id="path22" />
  <path
     d="M73.359 456.405L74.3111 454.759C74.8641 453.803 76.0883 453.475 77.0453 454.026L103.038 469.006C103.995 469.558 104.322 470.78 103.769 471.736L102.817 473.382L73.359 456.405Z"
     fill="#585858"
     id="path23" />
  <path
     d="M6 387L111 448V479.5"
     stroke="#A1000F"
     stroke-width="4"
     stroke-linejoin="round"
     id="path24" />
  <circle
     cx="6"
     cy="6"
     r="8.5"
     transform="matrix(-1 0 0 1 792.001 238)"
     fill="none"
     id="circle24"
     style="stroke:#d87000;stroke-opacity:1;stroke-width:2.5"/>
  <circle
     cx="6"
     cy="6"
     r="8.5"
     transform="matrix(-1 0 0 1 792.001 72)"
     fill="none"
     id="circle25"
     style="stroke:#d87000;stroke-opacity:1;stroke-width:2.5"/>
  <circle
     cx="6"
     cy="6"
     r="8.5"
     transform="matrix(-1 0 0 1 792.001 155)"
     fill="none"
     id="circle26"
     style="stroke:#d87000;stroke-opacity:1;stroke-width:2.5"/>
  <rect
     width="3.99996"
     height="476"
     transform="matrix(-1 0 0 1 619.003 6)"
     fill="#A1000F"
     id="rect26" />
  <path
     d="M646.836 198.589L646.836 288.078L724.335 243.334L646.836 198.589Z"
     fill="#555555"
     id="path27" />
  <rect
     width="31.9999"
     height="31.9998"
     transform="matrix(0.499997 0.866027 0.866023 -0.500004 608.647 164.531)"
     fill="#262626"
     id="rect27" />
  <rect
     width="31.9997"
     height="32"
     transform="matrix(-1 0 0 1 774.002 228)"
     fill="#262626"
     id="rect28" />
  <rect
     width="31.9999"
     height="31.9998"
     transform="matrix(0.499996 -0.866027 -0.866023 -0.500003 636.359 339.469)"
     fill="#262626"
     id="rect29" />
  <path
     d="M631.027 331.391L769.75 251.298L769.75 235.369L631.027 156.276L617.232 164.241L617.232 323.426L631.027 331.391Z"
     stroke="#A1000F"
     stroke-width="5"
     id="path26" />
  <path
     d="M619.941 166.094L632.065 159.094C633.022 158.541 634.245 158.869 634.797 159.826L678.199 235H765.002C766.106 235 767.002 235.895 767.002 237V251C767.002 252.105 766.106 253 765.002 253H678.199L634.797 328.174C634.245 329.131 633.022 329.459 632.065 328.906L619.941 321.906C618.984 321.354 618.656 320.131 619.209 319.174L662.61 244L619.209 168.826C618.656 167.869 618.984 166.646 619.941 166.094Z"
     fill="#555555"
     id="path29" />
  <path
     d="M842.001 33V480"
     stroke="#292929"
     stroke-width="4"
     stroke-linejoin="round"
     id="path30"
     style="stroke:#ffffff;stroke-opacity:1" />
  <path
     d="M950 33H764.002V8"
     stroke="#A1000F"
     stroke-width="4"
     stroke-linejoin="round"
     id="path31" />
  <path
     d="M899 132L950 155V168L899 191V132Z"
     fill="#292929"
     id="path32" />
  <path
     d="M950 168V221L899 191L950 168Z"
     fill="#D9D9D9"
     id="path33" />
  <path
     d="M950 168V221L899 191L950 168Z"
     fill="#A1000F"
     id="path34" />
  <path
     d="M950 102V155L899 132L950 102Z"
     fill="#D9D9D9"
     id="path35" />
  <path
     d="M950 102V155L899 132L950 102Z"
     fill="#A1000F"
     id="path36" />
  <path
     d="M950 127H926C924.896 127 924 127.895 924 129V194C924 195.105 924.896 196 926 196H950V127Z"
     fill="#585858"
     id="path37" />
  <path
     d="M816.001 6.5L816.001 8.5C816.001 9.60457 816.897 10.5 818.001 10.5L875.001 10.5C876.105 10.5 877.001 9.60457 877.001 8.5L877.001 6.5L816.001 6.5Z"
     fill="#585858"
     id="path38" />
  <path
     d="M946 420.402L945.048 418.756C944.495 417.8 943.271 417.472 942.314 418.023L916.321 433.003C915.364 433.555 915.037 434.777 915.59 435.733L916.542 437.379L946 420.402Z"
     fill="#585858"
     id="path39" />
  <path
     d="M914.821 438.404L913.868 436.758C913.315 435.802 912.091 435.474 911.134 436.025L885.142 451.005C884.185 451.556 883.857 452.778 884.41 453.735L885.362 455.381L914.821 438.404Z"
     fill="#585858"
     id="path40" />
  <path
     d="M883.641 456.405L882.689 454.759C882.136 453.803 880.912 453.475 879.955 454.027L853.962 469.006C853.005 469.558 852.678 470.78 853.231 471.736L854.183 473.382L883.641 456.405Z"
     fill="#585858"
     id="path41" />
  <path
     d="M951 387L846.001 448V479.5"
     stroke="#0047A6"
     stroke-width="4"
     stroke-linejoin="round"
     id="path42" />
  <path
     d="M5 6V244V417.5L117 482H840L952 417.5V6H5Z"
     stroke="#FFFFFF"
     stroke-width="6"
     stroke-linejoin="round"
     id="path43" />
</svg>
