<?xml version="1.0" encoding="UTF-8" standalone="no"?>
<!-- Created with Inkscape (http://www.inkscape.org/) -->

<svg
   width="16.4592mm"
   height="8.2290001mm"
   viewBox="0 0 16.4592 8.2290001"
   version="1.1"
   id="svg5"
   sodipodi:docname="field22.svg"
   inkscape:version="1.1 (c68e22c387, 2021-05-23)"
   xmlns:inkscape="http://www.inkscape.org/namespaces/inkscape"
   xmlns:sodipodi="http://sodipodi.sourceforge.net/DTD/sodipodi-0.dtd"
   xmlns="http://www.w3.org/2000/svg"
   xmlns:svg="http://www.w3.org/2000/svg">
  <sodipodi:namedview
     id="namedview7"
     pagecolor="#ffffff"
     bordercolor="#666666"
     borderopacity="1.0"
     inkscape:pageshadow="2"
     inkscape:pageopacity="0.0"
     inkscape:pagecheckerboard="true"
     inkscape:document-units="mm"
     showgrid="false"
     inkscape:zoom="14.481547"
     inkscape:cx="1.2084344"
     inkscape:cy="13.154672"
     inkscape:window-width="1920"
     inkscape:window-height="1001"
     inkscape:window-x="-9"
     inkscape:window-y="-9"
     inkscape:window-maximized="1"
     inkscape:current-layer="layer1"
     fit-margin-top="0"
     fit-margin-left="0"
     fit-margin-right="0"
     fit-margin-bottom="0" />
  <defs
     id="defs2" />
  <g
     inkscape:label="Layer 1"
     inkscape:groupmode="layer"
     id="layer1"
     transform="translate(0,8.229)">
    <g
       id="g944"
       transform="matrix(0.001,0,0,9.9992714e-4,8.094707,-4.2489882)">
      <path
         style="fill:#777777;stroke-width:5.08;fill-opacity:1"
         d="M -8094.707,134.498 V -3980.3018 H 134.8925 8364.492 V 134.498 4249.2978 H 134.8925 -8094.707 Z"
         id="path958" />
      <path
         style="display:none;fill:#ececec;stroke-width:5.08"
         d="m -6445.241,4019.4278 c -121.2327,-126.4285 -541.9578,-565.7408 -934.9445,-976.2489 l -714.5215,-746.379 V -841.75095 -3980.3018 H -792.30396 6510.0986 l 927.1441,956.31 927.1436,956.3099 0.051,3158.4899 0.051,3158.4898 h -7294.655 -7294.6548 l -220.4231,-229.87 z m 8403.8534,175.9819 c 0,-4.8286 -1123.35457,-2518.6324 -1127.54049,-2523.1709 -5.1374,-5.5697 -148.38425,58.1274 -145.61158,64.7492 1.22732,2.9317 108.79276,249.525 239.03379,547.9857 130.24158,298.4611 237.31878,545.3491 237.95028,548.6399 0.8062,4.2017 -13.9838,6.3714 -49.652,7.2832 -27.94,0.7143 -464.56593,12.6274 -970.2799,26.4739 -505.71397,13.8461 -948.20277,25.8344 -983.30862,26.6411 l -63.82867,1.4661 -708.33131,-675.8884 c -389.5821,-371.7386 -723.1902,-689.927 -741.3512,-707.0862 l -33.02,-31.1978 17.78,-17.5798 c 14.2595,-14.0991 122.811,-64.4591 548.2726,-254.3597 291.7708,-130.2288 531.2491,-237.53631 532.1737,-238.46103 2.4943,-2.49417 -142.6642,-328.35609 -146.2811,-328.38353 -1.7023,-0.0152 -251.9975,108.39328 -556.2107,240.90258 -304.2138,132.50938 -553.6179,240.42378 -554.2316,239.81008 -1.7322,-1.7318 -4.7848,-107.087 -32.4434,-1119.5807392 l -25.8465,-946.1846008 32.1935,-34.68771 c 17.7063,-19.07824 336.0313,-352.82505 707.3889,-741.65955 l 675.196,-706.972 15.4056,11.8807 c 8.4734,6.5343 17.2014,15.1133 19.3959,19.0642 2.1946,3.9511 109.3547,243.7581 238.13316,532.9047 128.7785,289.1465 235.05209,526.6306 236.1641,527.7424 2.72237,2.7228 134.26592,-55.981 137.62685,-61.4187 1.45796,-2.3594 -251.64998,-573.4351 -562.46261,-1269.0572 l -565.1134,-1264.7674 h -1505.3413 -1505.3415 l -1.309,311.15 -1.3091,311.15 -41.0837,1.462 -41.0836,1.4622 -3.3605,239.8378 c -1.8483,131.9109 -3.3631,531.8744 -3.3664,888.8079 l -0.01,648.97 h 45.72 45.72 v 312.4596 312.45965 l -306.07,-1.30962 -306.07,-1.30968 -1.4539,-49.53 -1.454,-49.52995 h -752.926 c -414.1093,0 -895.2295,1.5204 -1069.156,3.3732 l -316.2299,3.3688 v 44.88677 44.88678 h -304.8 -304.8 V 494.51164 1895.9254 l 529.4039,553.1683 529.404,553.1688 20.9884,-20.9885 c 25.9393,-25.939 49.714,-34.1752 91.0539,-31.5428 59.1511,3.7664 99.55,44.1651 103.3165,103.3166 2.6653,41.8571 -5.6261,65.1367 -32.9202,92.4311 l -22.3658,22.3657 44.6096,47.7535 c 24.5353,26.2646 245.7776,258.062 491.6496,515.1049 l 447.04,467.3508 3900.1697,0.2235 c 2145.0934,0.122 3900.1698,-1.1674 3900.1698,-2.8661 z M -514.06933,3989.9592 c -43.56964,-22.1162 -64.29146,-59.8942 -61.35522,-111.8575 2.27787,-40.3128 17.96542,-68.0024 50.85943,-89.7707 18.76501,-12.4175 25.88666,-14.0132 62.55766,-14.0132 36.67099,0 43.79264,1.5957 62.55765,14.0132 11.64641,7.7074 27.48178,23.5428 35.18916,35.1892 12.41755,18.765 14.01318,25.8866 14.01318,62.5576 0,36.671 -1.59563,43.7927 -14.01318,62.5577 -22.44953,33.9232 -49.49748,48.7903 -92.2086,50.6826 -28.98546,1.2842 -40.23207,-0.543 -57.60008,-9.3589 z m 1488.43991,-35.56 c -43.56964,-22.1162 -64.29146,-59.8942 -61.35522,-111.8575 2.27787,-40.3128 17.96542,-68.0024 50.85943,-89.7707 18.76501,-12.4175 25.88666,-14.0132 62.55761,-14.0132 36.671,0 43.7927,1.5957 62.5577,14.0132 11.6464,7.7074 27.4818,23.5428 35.1892,35.1892 12.4175,18.765 14.0131,25.8866 14.0131,62.5576 0,36.671 -1.5956,43.7927 -14.0131,62.5577 -22.4496,33.9232 -49.4975,48.7903 -92.2086,50.6826 -28.9855,1.2842 -40.23211,-0.543 -57.60012,-9.3589 z M -2993.1092,2430.3993 c -43.5696,-22.1163 -64.2914,-59.8942 -61.3552,-111.8575 2.2779,-40.3129 17.9653,-68.0024 50.8594,-89.7707 18.765,-12.4176 25.8867,-14.0132 62.5577,-14.0132 36.671,0 43.7926,1.5956 62.5576,14.0132 11.6465,7.7074 27.4818,23.5427 35.1892,35.1891 12.4176,18.765 14.0132,25.8867 14.0132,62.5577 0,36.671 -1.5956,43.7926 -14.0132,62.5577 -22.4495,33.9232 -49.4975,48.7903 -92.2086,50.6826 -28.9855,1.2842 -40.2321,-0.5431 -57.6001,-9.3589 z M -7627.347,1597.5379 V 1140.338 h 25.4 25.4 v 457.1999 457.2 h -25.4 -25.4 z m 4024.6381,-533.6587 c -43.5699,-22.1159 -64.2917,-59.8938 -61.3555,-111.8575 2.2779,-40.31269 17.9654,-68.00205 50.8595,-89.77035 18.7649,-12.41801 25.8869,-14.01338 62.5576,-14.01338 36.6708,0 43.7928,1.59537 62.5576,14.01338 11.6466,7.70732 27.4817,23.54239 35.189,35.189 12.418,18.76486 14.0134,25.88687 14.0134,62.55761 0,36.67074 -1.5954,43.79274 -14.0134,62.55764 -22.4493,33.9233 -49.4975,48.7904 -92.2084,50.6826 -28.9856,1.2842 -40.232,-0.5431 -57.5998,-9.359 z m 492.76,-2885.4398 c -43.5699,-22.1159 -64.2917,-59.8939 -61.3555,-111.8576 2.2779,-40.3127 17.9653,-68.002 50.8595,-89.7703 18.7648,-12.418 25.8869,-14.0134 62.5576,-14.0134 36.6707,0 43.7926,1.5954 62.5577,14.0134 11.6464,7.7073 27.4817,23.5424 35.1891,35.189 12.4176,18.7649 14.0132,25.8869 14.0132,62.5576 0,36.6707 -1.5956,43.7927 -14.0132,62.5576 -22.4495,33.9234 -49.4975,48.7904 -92.2086,50.6827 -28.9856,1.2841 -40.232,-0.5432 -57.5998,-9.359 z m 1031.2397,-1076.96 c -43.5697,-22.1159 -64.2915,-59.8938 -61.3553,-111.8575 2.2779,-40.3127 17.9655,-68.0021 50.8595,-89.7704 18.765,-12.418 25.8866,-14.0133 62.5576,-14.0133 36.671,0 43.7927,1.5953 62.5577,14.0133 11.6464,7.7074 27.4818,23.5424 35.1891,35.189 12.4176,18.7649 14.0132,25.8869 14.0132,62.5577 0,36.6707 -1.5956,43.7927 -14.0132,62.5576 -22.4495,33.9233 -49.4974,48.7904 -92.2086,50.6826 -28.9854,1.2842 -40.232,-0.5431 -57.6,-9.359 z m 7034.5214,6787.1384 v -309.88 h 43.18 43.18 v -891.5399 -891.54 h -45.72 -45.72 v -309.88 -309.88 h 304.8 304.8 v 48.26 48.26 h 450.8499 c 247.9675,0 730.3135,-1.522 1071.88,-3.3797 l 621.0299,-3.3772 v -44.8803 -44.8803 h 304.8 304.8 l -0.1473,-1443.98988 -0.1473,-1443.98992 -449.8198,-469.8002 c -247.4005,-258.3901 -470.2688,-490.9383 -495.2624,-516.7738 l -45.4426,-46.9737 -22.8676,17.4555 c -26.0198,19.861 -46.8203,25.1537 -86.0659,21.8992 -54.6293,-4.5303 -94.6099,-46.5299 -98.2167,-103.1767 -2.4836,-38.9983 4.223,-60.7927 26.8361,-87.2111 l 17.2898,-20.1991 -483.5296,-505.988 -483.5296,-505.9879 -3903.3021,-0.3321 c -3715.1166,-0.316 -3903.1781,0.097 -3900.7235,8.558 2.382,8.2116 1115.89713,2501.595 1118.45338,2504.441 0.83312,0.9276 134.78814,-57.1647 143.81987,-62.3705 0.70816,-0.4079 -106.16234,-247.0698 -237.48998,-548.1372 -131.3246,-301.0673 -238.77421,-549.4715 -238.77421,-552.0093 0,-2.5377 18.8595,-4.6191 41.91,-4.6254 23.05049,-0.01 488.58776,-12.5566 1034.52669,-27.8897 837.28195,-23.5156 993.49355,-26.792 998.21995,-20.9368 3.082,3.8179 334.7872,320.765 737.1232,704.327 402.336,383.562 732.0533,699.8842 732.7056,702.9381 4.1941,19.636 -30.0634,36.3555 -553.3623,270.07333 -291.4249,130.15727 -531.6098,238.33266 -533.7444,240.38976 -2.8265,2.72364 133.0193,320.5681 140.8425,329.53491 0.6355,0.72898 247.8288,-106.169 549.3171,-237.5511 301.4888,-131.38206 551.5447,-239.42049 555.6798,-240.08536 6.539,-1.05141 11.2426,133.44829 36.1066,1032.53997 22.3688,808.85569 27.2461,1034.86059 22.4181,1038.86009 -5.1059,4.2296 -1402.6052,1468.539 -1408.1226,1475.4407 -3.4783,4.3505 -41.2973,-36.5623 -43.6463,-47.2166 -1.3188,-5.9802 -104.6902,-239.4732 -229.7146,-518.8732 -125.0244,-279.4 -229.8918,-513.9075 -233.0384,-521.1277 l -5.7211,-13.1277 -66.03995,29.5005 c -36.322,16.2256 -68.0786,30.2418 -70.56983,31.1475 -3.2893,1.1964 1071.71278,2417.5638 1128.69108,2537.0484 l 8.0203,16.8189 H 3486.0931 4955.8122 Z M 2330.7305,3344.7993 c -43.5696,-22.1163 -64.2915,-59.8942 -61.3552,-111.8576 2.2778,-40.3128 17.9654,-68.0024 50.8594,-89.7707 18.765,-12.4175 25.8867,-14.0131 62.5577,-14.0131 36.671,0 43.7926,1.5956 62.5576,14.0131 11.6464,7.7074 27.4818,23.5428 35.1892,35.1892 12.4175,18.765 14.0132,25.8867 14.0132,62.5576 0,36.671 -1.5957,43.7927 -14.0132,62.5577 -22.4496,33.9232 -49.4975,48.7904 -92.2086,50.6827 -28.9855,1.2842 -40.2321,-0.5431 -57.6001,-9.3589 z m 1031.2399,-1082.04 c -43.5696,-22.1163 -64.2914,-59.8942 -61.3552,-111.8575 2.2779,-40.3129 17.9654,-68.0024 50.8594,-89.7707 18.7651,-12.4176 25.8867,-14.0132 62.5577,-14.0132 36.671,0 43.7926,1.5956 62.5577,14.0132 11.6464,7.7074 27.4817,23.5427 35.1891,35.1891 12.4176,18.7651 14.0132,25.8867 14.0132,62.5577 0,36.671 -1.5956,43.7926 -14.0132,62.5577 -22.4495,33.9232 -49.4975,48.7903 -92.2086,50.6826 -28.9854,1.2842 -40.2321,-0.543 -57.6001,-9.3589 z m 497.84,-2890.51999 c -43.5696,-22.11588 -64.2915,-59.89385 -61.3552,-111.85753 2.2779,-40.31269 17.9654,-68.00204 50.8594,-89.77035 18.765,-12.41801 25.8867,-14.01338 62.5577,-14.01338 36.671,0 43.7926,1.59537 62.5576,14.01338 11.6464,7.70732 27.4818,23.5424 35.1892,35.18901 12.4175,18.76485 14.0132,25.88686 14.0132,62.5576 0,36.67074 -1.5957,43.79275 -14.0132,62.55761 -22.4496,33.92337 -49.4975,48.7904 -92.2086,50.68265 -28.9855,1.28417 -40.2321,-0.54316 -57.6001,-9.35899 z M 7917.452,-1333.6219 v -457.2 h 25.4 25.4 v 457.2 457.19995 h -25.4 -25.4 z m -4662.1616,-645.4187 c -43.5696,-22.1159 -64.2914,-59.8939 -61.3552,-111.8576 2.2779,-40.3126 17.9654,-68.002 50.8595,-89.7703 18.765,-12.418 25.8866,-14.0134 62.5576,-14.0134 36.671,0 43.7927,1.5954 62.5577,14.0134 11.6464,7.7073 27.4817,23.5424 35.1891,35.189 12.4176,18.7649 14.0132,25.8869 14.0132,62.5576 0,36.6707 -1.5956,43.7928 -14.0132,62.5576 -22.4495,33.9234 -49.4975,48.7904 -92.2086,50.6827 -28.9854,1.2841 -40.2321,-0.5432 -57.6001,-9.359 z m -3977.63972,-1524 c -43.56963,-22.1158 -64.29146,-59.8938 -61.35522,-111.8575 2.27787,-40.3127 17.96542,-68.002 50.85943,-89.7703 18.76501,-12.418 25.88667,-14.0134 62.55766,-14.0134 36.67099,0 43.79264,1.5954 62.55766,14.0134 11.6464,7.7073 27.48178,23.5424 35.18915,35.189 12.41755,18.7648 14.01318,25.8868 14.01318,62.5576 0,36.6707 -1.59563,43.7927 -14.01318,62.5576 -22.44953,33.9234 -49.49748,48.7904 -92.2086,50.6827 -28.98546,1.2841 -40.23207,-0.5432 -57.60008,-9.3591 z m 1488.43991,-45.72 c -43.56963,-22.1158 -64.29146,-59.8938 -61.35522,-111.8575 2.27787,-40.3127 17.96542,-68.002 50.85943,-89.7703 18.76501,-12.418 25.88666,-14.0134 62.55766,-14.0134 36.67099,0 43.79264,1.5954 62.55765,14.0134 11.64641,7.7073 27.48179,23.5424 35.18916,35.189 12.41755,18.7648 14.01318,25.8868 14.01318,62.5576 0,36.6707 -1.59563,43.7927 -14.01318,62.5576 -22.44953,33.9234 -49.49748,48.7904 -92.2086,50.6827 -28.98546,1.2841 -40.23207,-0.5432 -57.60008,-9.3591 z M 6068.3321,2763.3979 v -1435.1 h -253.9999 -254 v 233.68 233.68 h -233.68 -233.68 v 891.54 891.5399 h 236.22 236.22 v 309.88 309.88 h 251.46 251.4599 z m 599.44,-2.54 v -1437.64 h -156.21 c -85.9155,0 -209.3595,1.5144 -274.32,3.3513 l -118.11,3.3396 v 1434.2887 1434.2886 h 274.32 274.32 V 2760.8462 Z m 599.44,0 v -1437.64 h -274.32 -274.32 v 1437.64 1437.6399 h 274.32 274.32 z m 436.8799,1127.7599 v -309.88 h 304.8 304.8 v -891.5399 -891.54 h -304.8 -304.8 v -236.22 -236.22 h -193.0399 -193.04 v 1437.64 1437.6399 h 193.04 193.0399 z M 162.50535,2811.2596 c 502.74013,-13.8567 915.01765,-26.1386 916.17185,-27.2928 2.1808,-2.1814 -439.35038,-1018.6416 -445.17765,-1024.8544 -1.81915,-1.939 -29.06115,7.903 -60.53886,21.8714 -53.23027,23.621 -57.81853,24.8092 -65.63004,16.9977 -7.81152,-7.811 -6.57657,-16.1996 17.66011,-119.9825 l 26.05836,-111.5847 -84.36965,-193.9879 c -46.40326,-106.6937 -86.88882,-196.6636 -89.96832,-199.9336 -3.07898,-3.2695 -241.55093,-97.511 -529.93693,-209.4254 l -524.33826,-203.48066 -199.56169,89.13088 -199.56167,89.13083 -52.07,97.89945 c -28.6385,53.8448 -52.07,100.394 -52.07,103.4425 0,7.2461 -20.1407,13.5742 -25.4681,8.002 -2.2687,-2.3729 -16.0934,-31.2898 -30.7208,-64.2592 -20.8539,-47.0022 -28.353,-59.312 -34.7335,-57.0144 -38.6349,13.9122 -1026.264,458.266 -1025.2948,461.3003 0.699,2.19 319.7174,307.8607 708.9287,679.2686 l 707.65718,675.2875 64.44538,-2.6604 c 35.44519,-1.4636 475.77855,-13.998 978.51869,-27.8552 z m 2048.89395,-923.8259 676.1413,-708.3247 -2.481,-61.2953 c -1.3645,-33.7128 -13.7745,-474.86823 -27.5773,-980.34573 -13.8034,-505.4775 -25.6713,-919.46543 -26.3734,-919.97312 -0.702,-0.50749 -233.3055,100.3592 -516.8965,224.14859 -340.4088,148.59085 -515.0642,227.30128 -513.9847,231.6331 0.8996,3.60883 11.5737,29.42148 23.7205,57.36148 21.0434,48.40432 21.6601,51.19608 13.0734,59.19947 -8.4145,7.84332 -16.1752,6.72719 -117.2164,-16.85813 l -108.2056,-25.2575 -195.2934,85.10955 c -128.8166,56.13877 -197.5069,88.679726 -201.7954,95.598076 -3.5763,5.768696 -97.0879,243.769784 -207.803,528.891324 l -201.30055,518.4028 87.02954,195.33719 c 47.86579,107.4354 89.59544,197.9254 92.73234,201.0892 7.17398,7.235 186.18457,103.9627 195.33967,105.5507 7.4793,1.2975 15.9055,12.5558 16.0259,21.4127 0.051,3.143 -28.5404,18.002 -63.5183,33.02 -47.3984,20.35 -63.1083,29.3309 -61.6798,35.2608 3.9065,16.2184 458.1255,1030.6974 460.9683,1029.5524 1.6241,-0.6538 307.2165,-319.9348 679.0944,-709.5129 z M 578.18801,1452.2758 c 1.89077,-9.8902 -18.24787,-58.106 -78.00594,-186.7651 L 419.6275,1092.078 245.51,1025.3049 C 149.7454,988.57971 -96.563462,894.23406 -301.84371,815.64789 l -373.2357,-142.88394 -172.07128,80.07218 c -149.71623,69.6696 -189.90261,92.00575 -180.41821,100.27884 0.9246,0.80675 79.91143,-33.54548 175.52617,-76.33828 l 173.8447,-77.80507 29.35529,11.89843 c 16.14525,6.54415 260.24127,101.52481 542.43525,211.0682 282.19399,109.54335 516.50897,201.06365 520.69997,203.37865 4.191,2.315 40.71976,80.7471 81.17535,174.2943 40.45559,93.5472 75.04379,169.166 76.86344,168.0413 1.81966,-1.1242 4.45516,-8.0437 5.85674,-15.3767 z m 316.33056,-140.4879 c -3.81406,-9.0805 -38.96715,-88.0074 -78.11719,-175.3936 L 745.21992,977.51095 955.57559,436.47818 c 115.69601,-297.568 212.56601,-545.16226 215.26701,-550.20939 2.9591,-5.52922 71.1449,-37.97747 171.5506,-81.63748 91.6513,-39.85351 168.5732,-74.28219 170.9364,-76.50825 2.3632,-2.22605 -4.6259,-5.55492 -15.5316,-7.39744 -18.0899,-3.05628 -34.7284,3.57007 -189.7126,75.55433 l -169.8838,78.90443 -210.08442,548.05674 -210.0844,548.05679 80.19998,173.05879 c 73.14641,157.8382 84.04707,177.419 102.21061,183.5973 0.55576,0.188 -2.11023,-7.0856 -5.9248,-16.1661 z M -1947.9074,803.95845 c 269.621,-117.39016 490.57,-213.74353 490.9972,-214.11858 0.4268,-0.37491 -10.4307,-25.67168 -24.13,-56.21482 -13.6987,-30.5431 -24.9072,-57.56687 -24.9072,-60.05287 0,-2.48594 3.4041,-7.92383 7.5641,-12.08415 6.699,-6.69899 20.4998,-4.55767 120.65,18.72041 l 113.0859,26.28468 193.04,-84.01552 193.03996,-84.01558 204.05089,-522.35199 c 112.22786,-287.29359 204.23935,-526.29249 204.46999,-531.10869 0.2286,-4.81625 -39.64686,-98.56881 -88.61603,-208.33907 l -89.03461,-199.58227 -56.81421,-30.421 c -31.24759,-16.7315 -77.33842,-41.2709 -102.42346,-54.5319 -41.45534,-21.9149 -53.55133,-30.9172 -53.77485,-40.0199 -0.0508,-1.744 26.78278,-15.0881 59.61228,-29.6535 32.82949,-14.5654 61.71945,-28.4267 64.20002,-30.8029 3.8994,-3.7356 -443.28028,-1016.2685 -453.79388,-1027.5089 -2.066,-2.2089 -287.0027,292.6851 -633.1925,655.32 -346.1892,362.6349 -650.7642,681.44625 -676.8322,708.46971 l -47.3964,49.13361 26.9326,982.588178 26.9327,982.588202 28.0599,-12.4232 c 15.433,-6.8328 248.6588,-108.46979 518.2798,-225.85995 z M -972.361,456.62754 c 93.49638,-43.55475 170.50816,-79.69285 171.13706,-80.30692 2.77724,-2.7115 414.60774,-1078.65733 416.70933,-1088.69226 3.39751,-16.22557 -147.39771,-340.77066 -165.22292,-355.59556 -7.4102,-6.1628 -14.12596,-10.5519 -14.92454,-9.7536 -0.79806,0.7984 34.36112,81.81624 78.13192,180.03971 l 79.58379,178.58815 -213.55252,549.20045 -213.55252,549.2005 -156.87801,68.47647 c -86.28279,37.66205 -162.59299,70.91156 -169.57799,73.88783 l -12.7,5.41137 12.7,3.86075 c 6.985,2.12344 13.9268,4.08869 15.4264,4.36718 1.5001,0.27838 79.2241,-35.12932 172.72,-78.68407 z m 2159.3336,-958.77289 c 92.5388,-42.81383 170.3395,-81.57245 172.8902,-86.13023 3.2614,-5.82818 -8.5877,-2.38282 -39.9364,11.61232 -24.5156,10.94451 -102.6323,45.80235 -173.5922,77.46187 l -129.0183,57.56265 -549.29226,-213.28318 -549.292747,-213.28323 -75.878943,-174.11065 c -70.51649,-161.8046 -83.5538,-185.2958 -83.8017,-150.9944 -0.0864,11.8224 149.071064,336.17391 158.917627,345.57867 3.357372,3.20675 189.326003,75.87269 413.263563,161.47983 223.93705,85.60714 468.53904,179.40161 543.55997,208.43208 75.02042,29.03052 138.09469,52.94813 140.16479,53.15021 2.0701,0.20218 79.4776,-34.66206 172.0164,-77.47594 z m 47.7398,-97.07006 c 92.202,-41.13118 170.2664,-77.46654 173.4759,-80.74522 9.0821,-9.27725 108.4641,-195.45264 108.4641,-203.18892 0,-3.78485 5.8202,-9.53343 12.9337,-12.77457 12.7234,-5.79714 13.2598,-5.17012 32.986,38.55461 11.0286,24.44617 25.211,55.23224 31.5163,68.41347 l 11.464,23.96592 514.7376,-230.1085 c 283.1058,-126.55968 515.1348,-231.36438 515.62,-232.89938 0.4826,-1.5349 -307.7276,-297.0778 -684.9176,-656.7619 -377.19,-359.6841 -696.1017,-663.9367 -708.6925,-676.1168 l -22.8925,-22.1456 -979.70028,27.5165 c -538.83557,15.1341 -980.39829,28.2157 -981.25071,29.0702 -0.85293,0.8546 96.73691,226.7247 216.8662,501.9337 120.12929,275.209 220.43592,505.4486 222.90429,511.6435 4.46278,11.2011 4.80416,11.1223 61.68745,-14.2232 50.10811,-22.3267 58.642,-24.715 68.82892,-19.2631 6.96214,3.7259 10.65987,9.4339 9.21512,14.2232 -5.8674,19.4444 -49.17033,209.3998 -49.57572,217.4695 -0.3302,6.6152 164.200833,391.81114 171.610521,401.76576 0.669544,0.89967 238.570499,93.78843 528.668959,206.41949 l 527.45125,204.78373 25.4793,-11.37422 c 14.0142,-6.25587 100.9177,-45.02703 193.1197,-86.15817 z M -7051.6064,-1641.8037 c 1.8586,-323.1699 3.3793,-970.1079 3.3793,-1437.6399 v -850.0582 h -190.5 -190.4999 v 309.88 309.88 h -307.34 -307.34 v 888.9999 889 h 304.8 304.8 v 238.76 238.76 h 189.6606 189.6605 z m 599.4399,0 c 1.8587,-323.1699 3.3794,-970.1079 3.3794,-1437.6399 v -850.0582 h -270.9393 -270.9394 l -3.3806,709.5026 c -1.8594,390.2264 -3.3807,1037.1643 -3.3807,1437.6399 v 728.1374 h 270.9406 270.9406 z m 599.44,0 c 1.8586,-323.1699 3.3794,-970.1079 3.3794,-1437.6399 v -850.0582 h -270.9394 -270.9393 l -3.3807,709.5026 c -1.8593,390.2264 -3.3806,1037.1643 -3.3806,1437.6399 v 728.1374 h 270.9406 270.9406 z m 411.4929,584.224 145.6064,-3.3578 v -232.8622 -232.8622 h 232.8516 232.8515 l 3.3624,-232.41 c 1.8493,-127.8255 3.3651,-527.8755 3.3685,-889 l 0.01,-656.5899 h -236.22 -236.22 v -312.42 -312.42 h -248.0793 -248.0794 l -3.3806,709.5026 c -1.8593,390.2264 -3.3806,1037.1643 -3.3806,1437.6399 v 728.1374 h 105.8535 c 58.2194,0 171.3764,-1.511 251.46,-3.3578 z"
         id="path956" />
      <path
         style="fill:#0148a6;stroke-width:5.08"
         d="m -7123.7515,3237.4716 -920.1555,-961.0262 0.169,-188.3238 0.1689,-188.3237 33.9277,35.56 c 223.1474,233.8832 1023.5141,1069.34 1024.4268,1069.34 0.6655,0 11.4149,-9.778 23.8875,-21.7292 47.8006,-45.8008 110.5177,-45.2943 157.0807,1.2684 47.9527,47.9527 47.2749,110.3869 -1.7328,159.5953 l -24.7333,24.8346 42.8845,43.7454 c 23.5865,24.0599 221.8713,231.1974 440.6329,460.3054 218.7617,229.108 421.9464,441.1345 451.5216,471.17 l 53.7731,54.61 h -180.8478 -180.8478 z m 12079.5637,651.1462 v -309.88 h 43.18 43.18 v -891.5399 -891.54 h -45.72 -45.72 v -309.88 -309.88 h 304.8 304.8 v 48.26 48.26 H 6632.2121 7704.092 v -48.26 -48.26 h 304.8 304.8 v 309.88 309.88 h -304.8 -304.8 v -236.22 -236.22 h -193.0399 -193.04 v 1437.64 1437.6399 h -25.4 -25.4 v -1437.6399 -1437.64 h -274.32 -274.32 v 1437.64 1437.6399 h -25.4 -25.4 v -1437.6399 -1437.64 h -274.32 -274.32 v 1437.64 1437.6399 h -25.4 -25.4 v -1437.6399 -1437.64 h -253.9999 -254 v 236.22 236.22 h -233.68 -233.68 v 891.54 891.5399 h 236.22 236.22 v 309.88 309.88 h -304.8 -304.8 z m 2748.2798,0 v -309.88 h 304.8 304.8 v 309.88 309.88 h -304.8 -304.8 z m -8204.19946,105.0874 c -24.65426,-7.8145 -62.35801,-46.9544 -69.99071,-72.6567 -13.16889,-44.3453 -3.80746,-80.8339 29.21,-113.8514 23.02662,-23.0261 50.62626,-35.4193 78.88071,-35.4193 28.25445,0 55.85408,12.3932 78.88071,35.4193 23.02611,23.0266 35.41928,50.6263 35.41928,78.8807 0,28.2545 -12.39317,55.8541 -35.41928,78.8807 -32.92805,32.9281 -72.84263,42.7365 -116.98071,28.7467 z m 1488.43991,-35.56 c -24.65426,-7.8145 -62.35801,-46.9544 -69.99071,-72.6567 -13.16889,-44.3453 -3.80746,-80.8339 29.20999,-113.8514 23.02663,-23.0261 50.62627,-35.4193 78.88067,-35.4193 28.2545,0 55.8541,12.3932 78.8808,35.4193 23.0261,23.0266 35.4192,50.6263 35.4192,78.8807 0,28.2545 -12.3931,55.8541 -35.4192,78.8807 -32.9281,32.9281 -72.8427,42.7365 -116.98075,28.7467 z M 2344.6924,3348.5453 c -24.6543,-7.8146 -62.358,-46.9545 -69.9907,-72.6567 -13.1689,-44.3454 -3.8075,-80.834 29.21,-113.8515 23.0266,-23.0261 50.6262,-35.4192 78.8807,-35.4192 58.3224,0 114.3,55.9775 114.3,114.2999 0,28.2545 -12.3932,55.8541 -35.4193,78.8808 -32.9281,32.928 -72.8426,42.7365 -116.9807,28.7467 z M -1617.7074,2211.873 c -392.557,-374.5256 -724.9576,-692.0697 -738.668,-705.6537 l -24.9276,-24.6984 14.156,-16.9215 c 7.7856,-9.3065 21.2892,-19.5265 30.008,-22.7106 19.1978,-7.0109 1026.3251,-457.03816 1042.102,-465.65536 10.9774,-5.99557 10.1681,-8.21396 -61.5101,-168.63547 -39.9487,-89.408 -73.3552,-164.34302 -74.2376,-166.52229 -0.8824,-2.17927 -238.1824,99.21331 -527.3335,225.31678 -568.1319,247.77184 -584.7648,254.93764 -586.3655,252.62934 -0.5888,-0.8489 -13.6571,-465.55097 -29.0409,-1032.670768 -26.3266,-970.508352 -27.4619,-1031.581482 -19.3172,-1038.859952 4.7595,-4.25318 322.2351,-336.34548 705.5017,-737.98298 383.2662,-401.6375 698.5742,-730.25 700.6839,-730.25 7.3645,0 34.9885,33.1423 40.2249,48.26 5.5185,15.9328 462.13931,1039.2485 465.01205,1042.1213 3.84098,3.841 331.26576,-145.5534 332.20556,-151.5758 0.56896,-3.6441 -105.93933,-251.2275 -236.6843,-550.1855 -130.74547,-298.958 -237.46154,-543.9888 -237.14759,-544.513 2.30632,-3.8499 1970.79248,-58.5663 2029.06918,-56.4004 l 39.6469,1.4734 737.2583,703.4298 737.2583,703.4297 -11.6535,15.1119 c -6.4099,8.3115 -14.8864,16.7912 -18.8376,18.8439 -3.9513,2.0526 -243.7846,109.1769 -532.9636,238.05409 -289.179,128.87711 -527.2019,235.90793 -528.9398,237.84625 -3.6682,4.09123 143.3018,336.5893 147.605,333.93409 2.5578,-1.57856 919.3078,-401.54294 1050.993,-458.53277 28.8412,-12.48161 53.434,-21.69784 54.6517,-20.48052 2.8021,2.80243 58.8457,2015.80216 56.9061,2043.98396 -1.3924,20.2239 -22.2976,42.705 -684.696,736.3124 -375.793,393.4983 -692.8231,725.868 -704.5117,738.5989 l -21.2521,23.1481 -17.4006,-17.78 c -13.8084,-14.1092 -65.9617,-126.8563 -252.6095,-546.1 -129.3653,-290.576 -236.7849,-530.1467 -238.7108,-532.3794 -4.0706,-4.7183 -330.3564,138.6261 -333.4298,146.4828 -1.13233,2.8951 105.4547,251.8644 236.85956,553.2648 131.40534,301.401 238.21994,548.7004 237.36604,549.5544 -1.5316,1.5311 -1989.56716,57.8287 -2038.36563,57.7225 l -25.16531,-0.056 -713.73996,-680.9551 z M 94.252502,2816.462 c 535.050968,-14.3911 976.725998,-27.6458 981.499598,-29.4548 7.4295,-2.8159 -23.6143,-77.3644 -215.55553,-517.6393 -123.32969,-282.8925 -227.02011,-514.35 -230.42371,-514.35 -3.40411,0 -25.50058,8.8799 -49.10378,19.7333 -57.41213,26.3987 -63.44615,28.0426 -71.89978,19.5895 -6.06907,-6.0691 -3.50266,-22.3063 17.79575,-112.5962 13.68806,-58.0273 24.88742,-108.8629 24.88742,-112.968 0,-7.6012 -165.92498,-392.4092 -172.07279,-399.065 -5.15112,-5.5768 -1037.71186,-406.50831 -1052.20713,-408.55997 -8.30428,-1.17541 -80.39252,28.59989 -208.27592,86.02654 l -195.57593,87.82406 -19.4914,35.35791 c -10.7209,19.44685 -35.5844,66.21896 -55.2532,103.93796 -31.339,60.0994 -46.1894,81.5619 -52.1685,75.3958 -0.9256,-0.9551 -14.4079,-30.3108 -29.9603,-65.2358 -17.2969,-38.8408 -30.7975,-62.9213 -34.7665,-62.0098 -16.2596,3.7346 -1035.0993,461.0036 -1033.9481,464.0501 1.7053,4.5146 1417.76033,1355.5654 1421.12125,1355.8844 1.41834,0.1372 440.34758,-11.5295 975.398552,-25.9207 z M 2165.2139,1939.1679 c 348.7166,-365.3155 654.2517,-685.2092 678.9664,-710.8748 l 44.9366,-46.6654 -27.0631,-983.5754 c -23.811,-865.38984 -27.9832,-983.32798 -34.7223,-981.51528 -21.8303,5.87202 -1031.2578,448.71678 -1031.2674,452.42615 0,2.40085 10.4628,28.42071 23.2649,57.82187 33.2806,76.43083 35.3126,75.43998 -92.8401,45.26651 -55.339,-13.02959 -105.6045,-23.67742 -111.701,-23.66183 -11.2284,0.0305 -390.4407,163.301574 -398.8801,171.740926 -5.1821,5.182108 -410.39082,1046.031744 -410.5732,1054.629894 -0.066,3.05659 39.36492,94.25246 87.62238,202.65736 l 87.74023,197.1004 97.82449,53.0896 c 53.8038,29.1998 100.0181,53.09 102.6994,53.09 2.6807,0 7.3299,4.5888 10.3317,10.1976 5.7703,10.7828 -1.5108,14.9601 -97.7601,56.0837 -21.0444,8.9911 -28.3799,14.5796 -26.3575,20.0787 4.6146,12.5466 461.84,1036.3032 462.8331,1036.3119 0.503,0 286.2291,-298.8864 634.9456,-664.2019 z M 579.22483,1456.2911 c 2.94437,-17.429 -4.57352,-36.2595 -76.56423,-191.77 -43.90593,-94.8436 -80.1817,-172.97 -80.61299,-173.614 -1.91668,-2.8643 -1090.25633,-417.9373 -1096.02873,-418.00548 -3.55651,-0.0406 -83.37041,35.65088 -177.36412,79.31744 -137.46784,63.86337 -172.03676,81.89356 -176.71996,92.17284 -3.2025,7.02843 -5.1654,13.32367 -4.3622,13.9894 0.8031,0.66569 80.61856,-34.20049 177.36766,-77.48036 l 175.90769,-78.69077 545.45227,211.67043 c 299.99887,116.4187 548.007,215.0207 551.12967,219.1152 3.12268,4.095 38.50437,82.8599 78.6257,175.0335 40.12082,92.174 74.51242,167.5886 76.42554,167.5886 1.91313,0 4.94742,-8.6969 6.7437,-19.3268 z m 314.80962,-152.1232 c -7.08914,-16.0655 -42.82339,-96.1242 -79.40954,-177.9082 L 748.10536,977.56109 960.9289,429.25 l 212.8235,-548.31104 177.4261,-77.45385 177.4266,-77.45389 -24.2697,-6.19115 -24.2691,-6.19114 -171.8209,79.61456 -171.8208,79.61452 -209.41638,546.09998 c -115.17884,300.35498 -209.45957,548.57078 -209.5124,551.59064 -0.0559,3.0199 34.70859,80.74387 77.24851,172.71977 72.01712,155.7101 91.55226,189.9503 108.43412,190.0641 2.06044,0 -2.05436,-13.1191 -9.144,-29.1846 z M -1973.3074,817.8586 c 280.797,-122.18817 512.4714,-223.96301 514.8316,-226.16631 2.3607,-2.20325 -7.1984,-29.9182 -21.242,-61.58875 -26.5994,-59.98576 -27.2131,-70.72 -4.0178,-70.28104 5.9446,0.11278 57.6214,11.28639 114.838,24.83089 l 104.0302,24.62632 193.1497,-84.13973 c 106.23248,-46.27682 194.59603,-86.29752 196.36336,-88.93485 1.76733,-2.63733 95.01174,-240.874944 207.20963,-529.4169 l 203.99704,-524.62168 -89.19311,-199.85593 c -49.05603,-109.92072 -92.00844,-202.52312 -95.44964,-205.78302 -9.75969,-9.2453 -186.42481,-103.4695 -193.9996,-103.4695 -6.18439,0 -12.91742,-10.4253 -12.91742,-20.0011 0,-2.1616 27.5275,-16.0631 61.17183,-30.8923 33.64433,-14.8291 62.12383,-28.5026 63.28715,-30.3854 2.12191,-3.4329 -452.24344,-1025.4478 -458.98354,-1032.4031 -1.9731,-2.036 -309.0078,316.107 -682.2999,706.9846 l -678.7123,710.68643 2.1839,55.01543 c 1.2009,30.25846 12.2753,432.20537 24.609,893.215345 27.0383,1010.636895 27.3538,1019.840095 34.8514,1016.954695 3.1638,-1.2176 235.4955,-102.18593 516.2925,-224.3741 z M -971.96171,459.33117 c 90.48292,-42.06773 167.20616,-79.21523 170.49698,-82.55 3.29032,-3.33476 99.99421,-251.39994 214.89821,-551.25597 l 208.91601,-545.19273 -80.03641,-172.50907 c -66.47536,-143.2803 -82.63636,-174.1556 -95.38462,-182.2273 -8.44194,-5.345 -15.94866,-9.1186 -16.6817,-8.3857 -0.73254,0.7329 34.97935,82.86076 79.35975,182.50638 l 80.69224,181.17393 -190.13372,489.03364 c -104.57332,268.968512 -200.43951,515.62282 -213.03537,548.1207 l -22.90217,59.0871 -173.16859,75.45232 c -173.5485,75.61788 -181.9889,80.66745 -138.2806,82.72714 5.9101,0.27838 84.7771,-33.91271 175.25999,-75.98044 z M 1192.6932,-501.77197 c 145.0792,-67.1515 185.2681,-89.4559 175.7807,-97.55581 -0.9246,-0.78958 -80.2244,33.77921 -176.2211,76.81951 l -174.5397,78.25511 -546.82028,-212.07465 C 170.1416,-772.96887 -77.571375,-870.77833 -79.580007,-873.68221 c -2.00914,-2.90388 -37.239443,-82.33912 -78.289903,-176.52279 -41.05047,-94.1837 -76.25893,-170.2408 -78.24114,-169.0157 -1.98222,1.2251 -4.96723,9.0423 -6.63296,17.3717 -2.47548,12.3774 11.57681,46.5011 76.91272,186.7689 l 79.941415,171.6245 546.000905,209.31179 c 300.30063,115.12148 550.32347,209.43102 555.60567,209.57681 5.2827,0.1458 84.9218,-34.59647 176.9765,-77.20497 z m 23.4513,-86.5762 194.7921,-87.41379 55.274,-101.6 c 30.4007,-55.87999 55.3298,-104.21294 55.3979,-107.40648 0.1371,-6.37428 14.1716,-13.31011 19.8424,-9.80537 1.9589,1.21062 16.0396,31.03509 31.2913,66.27658 23.7587,54.89783 29.1856,63.77279 37.8902,61.96253 5.588,-1.16205 229.616,-100.35199 497.84,-220.42205 268.224,-120.07015 498.64,-223.14775 512.036,-229.06155 l 24.3561,-10.7523 -709.5891,-677.0956 -709.5891,-677.0957 -36.1269,-1.4493 c -19.8699,-0.7971 -445.58865,10.0614 -946.04228,24.13 -500.45363,14.0686 -927.36411,25.5793 -948.68994,25.5793 -26.55012,0 -38.77463,1.9024 -38.77463,6.0341 0,5.5292 440.60565,1019.8606 445.1746,1024.8497 1.09982,1.2011 26.54401,-8.7078 56.54243,-22.0198 29.99841,-13.312 56.83351,-25.1803 59.63361,-26.374 2.79959,-1.1937 7.91819,2.3581 11.37462,7.8928 5.25374,8.4127 2.05994,28.2142 -19.47468,120.7288 l -25.75916,110.6656 86.34069,198.1014 c 64.981836,149.09657 89.274903,199.7712 98.204018,204.85176 17.285207,9.83518 1036.615122,406.1095 1045.643722,406.50412 4.191,0.18338 95.2765,-39.00317 202.4121,-87.08075 z M -2979.1473,2434.1453 c -38.4704,-12.194 -76.2,-65.4842 -76.2,-107.6274 0,-58.3225 55.9775,-114.3 114.3,-114.3 28.2544,0 55.8541,12.3932 78.8807,35.4193 23.0261,23.0266 35.4193,50.6262 35.4193,78.8807 0,28.2544 -12.3932,55.8541 -35.4193,78.8807 -32.9281,32.9281 -72.8426,42.7365 -116.9807,28.7467 z m 6355.0796,-167.64 c -38.4703,-12.194 -76.2,-65.4842 -76.2,-107.6274 0,-58.3225 55.9775,-114.3 114.3,-114.3 58.3225,0 114.3,55.9775 114.3,114.3 0,28.2545 -12.3932,55.8541 -35.4193,78.8807 -32.928,32.9281 -72.8426,42.7365 -116.9807,28.7467 z M -7627.347,1597.5379 V 1140.338 h 25.4 25.4 v 457.1999 457.2 h -25.4 -25.4 z m 4038.5997,-529.9127 c -24.6543,-7.8145 -62.3577,-46.9541 -69.9906,-72.65662 -13.169,-44.34505 -3.8073,-80.83387 29.21,-113.85123 23.0264,-23.02632 50.6263,-35.41938 78.8806,-35.41938 43.9775,0 95.8346,38.05869 108.0906,79.32937 13.1691,44.34505 3.8074,80.83386 -29.21,113.85126 -32.9282,32.9281 -72.8425,42.7366 -116.9806,28.7466 z M 3873.7723,-624.01475 c -38.4704,-12.19362 -76.2,-65.48409 -76.2,-107.62721 0,-58.32251 55.9775,-114.29999 114.3,-114.29999 58.3224,0 114.3,55.97748 114.3,114.29999 0,28.25435 -12.3932,55.85424 -35.4193,78.88061 -32.9281,32.92815 -72.8426,42.73667 -116.9807,28.7466 z M 7917.452,-1333.6219 v -457.2 h 25.4 25.4 v 457.2 457.19995 h -25.4 -25.4 z m -15961.359,116.84 v -309.88 h 304.8 304.8 v 236.22 236.22 h 193.0399 193.04 v -1437.64 -1437.6399 h 25.4 25.4 v 1437.6399 1437.64 h 274.32 274.32 v -1437.64 -1437.6399 h 25.4 25.4 v 1437.6399 1437.64 h 274.32 274.32 v -1437.64 -1437.6399 h 25.4 25.4 v 1437.6399 1437.64 h 253.9999 254 v -236.22 -236.22 h 233.68 233.68 v -891.54 -891.5399 h -236.22 -236.22 v -309.88 -309.88 h 304.8 304.8 v 309.88 309.88 h -43.18 -43.18 v 891.5399 891.54 h 45.72 45.72 v 309.88 309.87995 h -304.8 -304.8 v -48.26 -48.25995 H -6362.4271 -7434.307 v 48.25995 48.26 h -304.8 -304.8 z m 15860.5947,-1017.6118 -494.4648,-516.596 -19.8471,16.9883 c -47.1586,40.3663 -107.7839,37.7205 -152.1444,-6.6398 -45.1887,-45.1889 -47.0454,-106.0398 -4.7031,-154.1432 l 18.7675,-21.3214 -396.8516,-414.6533 c -218.2688,-228.0592 -436.5238,-456.0733 -485.0119,-506.6979 l -88.1593,-92.0448 h 147.1792 147.1793 l 855.38,882.5707 c 470.4593,485.4138 881.13,909.1749 912.6016,941.6913 l 57.2211,59.1208 -1.3411,164.1606 -1.3411,164.1606 z m -10912.675,416.579 c -38.4704,-12.1936 -76.2,-65.4841 -76.2,-107.6272 0,-58.3225 55.9775,-114.3 114.3,-114.3 58.3225,0 114.3,55.9775 114.3,114.3 0,28.2543 -12.3932,55.8542 -35.4193,78.8806 -32.928,32.9282 -72.8426,42.7367 -116.9807,28.7466 z m 6365.2396,-157.48 c -38.4703,-12.1936 -76.2,-65.4841 -76.2,-107.6272 0,-58.3225 55.9775,-114.3 114.3,-114.3 58.3225,0 114.3,55.9775 114.3,114.3 0,28.2544 -12.3932,55.8542 -35.4193,78.8806 -32.928,32.9282 -72.8426,42.7367 -116.9807,28.7466 z m -5333.9997,-919.4799 c -38.4703,-12.1937 -76.2,-65.4841 -76.2,-107.6272 0,-58.3226 55.9776,-114.3 114.3,-114.3 58.3225,0 114.3,55.9774 114.3,114.3 0,28.2543 -12.3931,55.8542 -35.4193,78.8806 -32.928,32.9281 -72.8426,42.7366 -116.9807,28.7466 z m -5979.1596,-724.8472 v -309.88 h 304.8 304.8 v 309.88 309.88 h -304.8 -304.8 z m 7335.51955,120.3272 c -38.47033,-12.1936 -76.19999,-65.4841 -76.19999,-107.6272 0,-58.3226 55.97753,-114.3 114.29999,-114.3 58.32246,0 114.29999,55.9774 114.29999,114.3 0,28.2543 -12.39317,55.8542 -35.41928,78.8806 -32.92805,32.9282 -72.84262,42.7366 -116.98071,28.7466 z m 1488.43991,-45.72 c -38.47033,-12.1936 -76.19999,-65.4841 -76.19999,-107.6272 0,-58.3226 55.97753,-114.3 114.29999,-114.3 58.32246,0 114.29999,55.9774 114.29999,114.3 0,28.2543 -12.39317,55.8542 -35.41928,78.8806 -32.92805,32.9282 -72.84262,42.7366 -116.98071,28.7466 z"
         id="path954" />
      <path
         style="fill:#414141;stroke-width:5.08"
         d="m -7123.7515,3237.4716 -920.1555,-961.0262 v -188.0698 c 0,-150.4513 1.2702,-186.8012 6.35,-181.7283 3.4925,3.4879 242.0352,252.5476 530.0948,553.466 l 523.7449,547.1246 -6.8549,19.6885 c -14.6163,41.9816 -4.7609,81.7011 28.5816,115.1905 33.1002,33.2461 71.5564,42.101 119.845,27.5961 8.8058,-2.6451 71.966,61.0865 391.16,394.6982 209.3622,218.819 431.7453,451.0054 494.1847,515.9695 l 113.5263,118.1171 h -180.1607 -180.1607 z m 12079.5637,651.1462 v -309.88 h 43.18 43.18 v -891.5399 -891.54 h -45.72 -45.72 v -309.88 -309.88 h 304.8 304.8 v 48.26 48.26 H 6632.2121 7704.092 v -48.26 -48.26 h 304.8 304.8 v 309.88 309.88 h -304.8 -304.8 v -236.22 -236.22 h -193.0399 -193.04 v 1437.64 1437.6399 h -25.4 -25.4 v -1437.6399 -1437.64 h -274.32 -274.32 v 1437.64 1437.6399 h -25.4 -25.4 v -1437.6399 -1437.64 h -274.32 -274.32 v 1437.64 1437.6399 h -25.4 -25.4 v -1437.6399 -1437.64 h -253.9999 -254 v 236.22 236.22 h -233.68 -233.68 v 891.54 891.5399 h 236.22 236.22 v 309.88 309.88 h -304.8 -304.8 z m 2748.2798,0 v -309.88 h 304.8 304.8 v 309.88 309.88 h -304.8 -304.8 z m -6715.75955,69.5274 c -24.65426,-7.8145 -62.35801,-46.9544 -69.99071,-72.6567 -13.16889,-44.3453 -3.80746,-80.8339 29.20999,-113.8514 23.02663,-23.0261 50.62627,-35.4193 78.88067,-35.4193 28.2545,0 55.8541,12.3932 78.8808,35.4193 23.0261,23.0266 35.4192,50.6263 35.4192,78.8807 0,28.2545 -12.3931,55.8541 -35.4192,78.8807 -32.9281,32.9281 -72.8427,42.7365 -116.98075,28.7467 z M 1508.3232,2663.137 c -10.9956,-11.7343 -84.2888,-170.9766 -250.795,-544.8991 -129.3921,-290.576 -236.8468,-530.1589 -238.7884,-532.4068 -1.9411,-2.2479 -109.58931,43.1409 -239.2182,100.8634 -277.37967,123.5151 -261.29639,117.1021 -270.52471,107.8738 -6.07264,-6.0732 -1.25222,-32.2972 33.46856,-182.0728 l 40.56329,-174.9776 -80.0989,-172.72 c -44.05426,-94.996 -80.45094,-173.2468 -80.88223,-173.8908 -1.91668,-2.8643 -1090.25633,-417.9373 -1096.02873,-418.00548 -3.55651,-0.0406 -83.10778,35.52876 -176.78043,79.04607 l -170.31415,79.12242 -79.8758,148.49301 c -43.9319,81.67108 -79.8759,151.17618 -79.8759,154.45528 0,5.7318 -19.4833,19.0739 -22.8107,15.621 -0.8916,-0.9245 -69.1363,-153.63389 -151.6558,-339.35355 -152.3116,-342.7962 -155.2402,-350.66787 -130.4691,-350.66787 4.829,0 82.3117,17.145 172.184,38.1 89.8718,20.955 166.4858,38.1 170.2532,38.1 9.0764,0 334.15979,-151.23169 341.86107,-159.03681 3.29032,-3.33476 100.00081,-251.41594 214.91193,-551.29153 l 208.92921,-545.22835 -80.53171,-173.37957 -80.53171,-173.37962 -148.79268,-80.222 c -81.83626,-44.1221 -151.86913,-80.222 -155.62833,-80.222 -6.43382,0 -15.83284,-18.7798 -11.54532,-23.0676 1.09017,-1.0901 115.02745,-52.2156 253.19379,-113.6124 138.16685,-61.3967 251.67741,-114.6251 252.24586,-118.2852 0.56896,-3.6602 -105.93933,-251.2568 -236.6843,-550.2148 -130.74547,-298.958 -237.46154,-543.9888 -237.14759,-544.513 2.30632,-3.8499 1970.79248,-58.5663 2029.06918,-56.4004 l 39.6469,1.4734 737.2583,703.4298 737.2583,703.4297 -11.6535,15.1119 c -6.4099,8.3115 -14.8864,16.7912 -18.8376,18.8439 -3.9513,2.0526 -243.7846,109.1769 -532.9636,238.05409 -289.179,128.87711 -527.2019,235.90793 -528.9398,237.84625 -3.6682,4.09123 143.3018,336.5893 147.605,333.93409 2.5578,-1.57856 919.3078,-401.54294 1050.993,-458.53277 28.8412,-12.48161 53.434,-21.69784 54.6517,-20.48052 2.8016,2.80202 58.8462,2015.80566 56.9061,2043.96056 -1.3919,20.194 -23.1327,43.5635 -704.1809,756.92 -386.5097,404.8455 -704.3567,736.6853 -706.3267,737.4219 -1.97,0.7361 -10.573,-6.1219 -19.1176,-15.24 z m 656.8907,-723.9691 c 348.7166,-365.3155 654.2517,-685.2092 678.9664,-710.8748 l 44.9366,-46.6654 -27.0631,-983.5754 c -23.811,-865.38984 -27.9832,-983.32798 -34.7223,-981.51528 -21.8303,5.87202 -1031.2578,448.71678 -1031.2674,452.42615 0,2.40085 10.4628,28.42071 23.2649,57.82187 33.2806,76.43083 35.3126,75.43998 -92.8401,45.26651 -55.339,-13.02959 -105.6045,-23.67742 -111.701,-23.66183 -11.2284,0.0305 -390.4407,163.301574 -398.8801,171.740926 -5.1821,5.182108 -410.39082,1046.031744 -410.5732,1054.629894 -0.066,3.05659 39.36492,94.25246 87.62238,202.65736 l 87.74023,197.1004 97.82449,53.0896 c 53.8038,29.1998 100.0181,53.09 102.6994,53.09 2.6807,0 7.3299,4.5888 10.3317,10.1976 5.7703,10.7828 -1.5108,14.9601 -97.7601,56.0837 -21.0444,8.9911 -28.3799,14.5796 -26.3575,20.0787 4.6146,12.5466 461.84,1036.3032 462.8331,1036.3119 0.503,0 286.2291,-298.8864 634.9456,-664.2019 z m -1271.17945,-635 c -7.08914,-16.0655 -42.82339,-96.1242 -79.40954,-177.9082 L 748.10536,977.56109 960.9289,429.25 l 212.8235,-548.31104 177.4261,-77.45385 177.4266,-77.45389 -24.2697,-6.19115 -24.2691,-6.19114 -171.8209,79.61456 -171.8208,79.61452 -209.41638,546.09998 c -115.17884,300.35498 -209.45957,548.57078 -209.5124,551.59064 -0.0559,3.0199 34.70859,80.74387 77.24851,172.71977 72.01712,155.7101 91.55226,189.9503 108.43412,190.0641 2.06044,0 -2.05436,-13.1191 -9.144,-29.1846 z M 1192.6932,-501.77197 c 145.0792,-67.1515 185.2681,-89.4559 175.7807,-97.55581 -0.9246,-0.78958 -80.2244,33.77921 -176.2211,76.81951 l -174.5397,78.25511 -546.82028,-212.07465 C 170.1416,-772.96887 -77.571375,-870.77833 -79.580007,-873.68221 c -2.00914,-2.90388 -37.239443,-82.33912 -78.289903,-176.52279 -41.05047,-94.1837 -76.25893,-170.2408 -78.24114,-169.0157 -1.98222,1.2251 -4.96723,9.0423 -6.63296,17.3717 -2.47548,12.3774 11.57681,46.5011 76.91272,186.7689 l 79.941415,171.6245 546.000905,209.31179 c 300.30063,115.12148 550.32347,209.43102 555.60567,209.57681 5.2827,0.1458 84.9218,-34.59647 176.9765,-77.20497 z m 23.4513,-86.5762 194.7921,-87.41379 55.274,-101.6 c 30.4007,-55.87999 55.3298,-104.21294 55.3979,-107.40648 0.1371,-6.37428 14.1716,-13.31011 19.8424,-9.80537 1.9589,1.21062 16.0396,31.03509 31.2913,66.27658 23.7587,54.89783 29.1856,63.77279 37.8902,61.96253 5.588,-1.16205 229.616,-100.35199 497.84,-220.42205 268.224,-120.07015 498.64,-223.14775 512.036,-229.06155 l 24.3561,-10.7523 -709.5891,-677.0956 -709.5891,-677.0957 -36.1269,-1.4493 c -19.8699,-0.7971 -445.58865,10.0614 -946.04228,24.13 -500.45363,14.0686 -927.36411,25.5793 -948.68994,25.5793 -26.55012,0 -38.77463,1.9024 -38.77463,6.0341 0,5.5292 440.60565,1019.8606 445.1746,1024.8497 1.09982,1.2011 26.54401,-8.7078 56.54243,-22.0198 29.99841,-13.312 56.83351,-25.1803 59.63361,-26.374 2.79959,-1.1937 7.91819,2.3581 11.37462,7.8928 5.25374,8.4127 2.05994,28.2142 -19.47468,120.7288 l -25.75916,110.6656 86.34069,198.1014 c 64.981836,149.09657 89.274903,199.7712 98.204018,204.85176 17.285207,9.83518 1036.615122,406.1095 1045.643722,406.50412 4.191,0.18338 95.2765,-39.00317 202.4121,-87.08075 z M 3375.9323,2266.5053 c -38.4703,-12.194 -76.2,-65.4842 -76.2,-107.6274 0,-58.3225 55.9775,-114.3 114.3,-114.3 58.3225,0 114.3,55.9775 114.3,114.3 0,28.2545 -12.3932,55.8541 -35.4193,78.8807 -32.928,32.9281 -72.8426,42.7365 -116.9807,28.7467 z M -7627.347,1597.5379 V 1140.338 h 25.4 25.4 v 457.1999 457.2 h -25.4 -25.4 z m 4038.5997,-529.9127 c -24.6543,-7.8145 -62.3577,-46.9541 -69.9906,-72.65662 -13.169,-44.34505 -3.8073,-80.83387 29.21,-113.85123 23.0264,-23.02632 50.6263,-35.41938 78.8806,-35.41938 43.9775,0 95.8346,38.05869 108.0906,79.32937 13.1691,44.34505 3.8074,80.83386 -29.21,113.85126 -32.9282,32.9281 -72.8425,42.7366 -116.9806,28.7466 z M 7917.452,-1333.6219 v -457.2 h 25.4 25.4 v 457.2 457.19995 h -25.4 -25.4 z m -15961.359,116.84 v -309.88 h 304.8 304.8 v 309.88 309.87995 h -304.8 -304.8 z m 2753.3598,0 v -309.88 h 304.8 304.8 v 309.88 309.87995 h -304.8 -304.8 z m 13107.2349,-1017.6118 -494.4648,-516.596 -19.8471,16.9883 c -47.1586,40.3663 -107.7839,37.7205 -152.1444,-6.6398 -45.1887,-45.1889 -47.0454,-106.0398 -4.7031,-154.1432 l 18.7675,-21.3214 -396.8516,-414.6533 c -218.2688,-228.0592 -436.5238,-456.0733 -485.0119,-506.6979 l -88.1593,-92.0448 h 147.1792 147.1793 l 855.38,882.5707 c 470.4593,485.4138 881.13,909.1749 912.6016,941.6913 l 57.2211,59.1208 -1.3411,164.1606 -1.3411,164.1606 z m -4547.4354,259.099 c -38.4703,-12.1936 -76.2,-65.4841 -76.2,-107.6272 0,-58.3225 55.9775,-114.3 114.3,-114.3 58.3225,0 114.3,55.9775 114.3,114.3 0,28.2544 -12.3932,55.8542 -35.4193,78.8806 -32.928,32.9282 -72.8426,42.7367 -116.9807,28.7466 z m -5333.9997,-919.4799 c -38.4703,-12.1937 -76.2,-65.4841 -76.2,-107.6272 0,-58.3226 55.9776,-114.3 114.3,-114.3 58.3225,0 114.3,55.9774 114.3,114.3 0,28.2543 -12.3931,55.8542 -35.4193,78.8806 -32.928,32.9281 -72.8426,42.7366 -116.9807,28.7466 z m -5979.1596,-724.8472 v -309.88 h 304.8 304.8 v 309.88 309.88 h -304.8 -304.8 z m 2748.2798,0 v -309.88 h 304.8 304.8 v 309.88 309.88 h -304.8 -304.8 z m 6075.67966,74.6072 c -38.47033,-12.1936 -76.19999,-65.4841 -76.19999,-107.6272 0,-58.3226 55.97753,-114.3 114.29999,-114.3 58.32246,0 114.29999,55.9774 114.29999,114.3 0,28.2543 -12.39317,55.8542 -35.41928,78.8806 -32.92805,32.9282 -72.84262,42.7366 -116.98071,28.7466 z"
         id="path952" />
      <path
         style="fill:#a20312;stroke-width:5.08"
         d="m 4955.8122,3888.6178 v -309.88 h 43.18 43.18 v -891.5399 -891.54 h -45.72 -45.72 v -309.88 -309.88 h 304.8 304.8 v 48.26 48.26 H 6632.2121 7704.092 v -48.26 -48.26 h 304.8 304.8 v 309.88 309.88 h -304.8 -304.8 v -236.22 -236.22 h -193.0399 -193.04 v 1437.64 1437.6399 h -25.4 -25.4 v -1437.6399 -1437.64 h -274.32 -274.32 v 1437.64 1437.6399 h -25.4 -25.4 v -1437.6399 -1437.64 h -274.32 -274.32 v 1437.64 1437.6399 h -25.4 -25.4 v -1437.6399 -1437.64 h -253.9999 -254 v 236.22 236.22 h -233.68 -233.68 v 891.54 891.5399 h 236.22 236.22 v 309.88 309.88 h -304.8 -304.8 z m 2748.2798,0 v -309.88 h 304.8 304.8 v 309.88 309.88 h -304.8 -304.8 z m -6723.73972,64.1056 c -74.51496,-34.6975 -90.56725,-123.3196 -32.80055,-181.0863 36.62934,-36.6288 79.42477,-44.6461 124.60067,-23.3421 30.2682,14.2738 44.065,28.3205 57.9933,59.0428 13.6459,30.0995 13.1816,57.7871 -1.4905,88.9 -14.2737,30.2682 -28.3204,44.065 -59.0428,57.9933 -30.102,13.6469 -57.7169,13.1806 -89.26012,-1.5077 z M 1508.3847,2663.137 c -10.8742,-11.6505 -86.1436,-175.1574 -253.1801,-549.9791 -130.7378,-293.37 -237.9812,-533.6575 -238.3185,-533.972 -0.3353,-0.3149 -79.48065,34.7254 -175.87364,77.8673 -96.393,43.1414 -185.54699,82.6577 -198.11999,87.8128 -12.573,5.1557 -45.72,19.6322 -73.66,32.1702 -42.13148,18.9057 -51.98313,21.6591 -57.73216,16.1351 -5.83794,-5.6094 -2.73355,-24.985 19.66366,-122.7369 14.62786,-63.8419 32.99866,-142.0749 40.82339,-173.8503 l 14.22755,-57.7738 -79.05952,-170.8262 c -43.48277,-93.9546 -81.59394,-173.5174 -84.69122,-176.8067 -3.09728,-3.2893 -251.30098,-99.98413 -551.56351,-214.87736 L -675.03166,667.40328 -846.7641,747.2783 c -94.45294,43.93128 -173.9499,82.54655 -176.6595,85.81166 -2.7102,3.26517 -12.5827,20.58218 -21.9395,38.48232 -9.3569,17.90014 -36.4648,67.97868 -60.2402,111.28568 -23.7754,43.30704 -53.052,97.59954 -65.059,120.65004 -12.0071,23.0505 -24.413,41.91 -27.5677,41.91 -3.1552,0 -12.3728,-15.4305 -20.4841,-34.29 -8.1107,-18.8595 -25.7642,-57.8375 -39.2303,-86.6177 -13.4655,-28.78013 -24.483,-53.31815 -24.483,-54.52887 0,-2.24297 -103.2027,-235.73896 -146.9898,-332.56345 -73.8698,-163.34613 -73.5838,-162.60348 -65.6448,-170.54281 7.6058,-7.60532 64.4764,3.8638 292.2052,58.92851 l 61.79,14.94094 169.17012,-78.73756 c 93.04324,-43.30563 170.93995,-80.50753 173.10302,-82.6709 5.60476,-5.60461 420.58536,-1089.07636 420.6514,-1098.27812 0.0508,-4.191 -35.72967,-84.65718 -79.46643,-178.81375 l -79.5213,-171.19369 -46.25899,-23.6938 c -25.44216,-13.0316 -58.83147,-31.1011 -74.19847,-40.1543 -47.18558,-27.7989 -181.81878,-99.2244 -187.03238,-99.2244 -2.70663,0 -6.28803,-3.5637 -7.95935,-7.9193 -2.26517,-5.9027 4.3876,-11.1824 26.12644,-20.7342 16.04112,-7.0481 50.8823,-22.7949 77.42529,-34.9929 26.543,-12.1979 127.127,-56.8481 223.51999,-99.2226 96.39299,-42.3745 176.67833,-78.4994 178.41213,-80.2778 1.7338,-1.7783 -104.7628,-250.1212 -236.6589,-551.8732 -131.89559,-301.752 -239.35384,-549.2802 -238.79605,-550.0627 1.88519,-2.6432 1980.67968,-57.2095 2024.52568,-55.8273 l 43.4624,1.37 737.2187,703.3141 737.2192,703.3141 -14.8219,18.7142 c -8.1524,10.2928 -19.9877,19.8484 -26.3017,21.2347 -14.0751,3.0903 -1046.0613,464.81247 -1051.8652,470.61611 -5.6226,5.62265 140.9375,333.59607 148.3309,331.93628 3.2106,-0.72075 237.24,-102.22951 520.066,-225.57505 608.2715,-265.27851 583.185,-254.49138 585.7895,-251.88702 1.1338,1.13386 14.8869,465.40753 30.5623,1031.7193 l 28.5008,1029.65758 -93.7082,97.698 c -51.5397,53.7337 -368.617,385.7335 -704.6163,737.7775 -335.9998,352.044 -612.4935,640.6825 -614.4305,641.4191 -1.9375,0.7361 -10.4857,-6.1219 -18.9967,-15.24 z m 659.2006,-726.5091 c 349.9866,-366.7125 655.5384,-686.5599 679.0039,-710.7722 l 42.6649,-44.0228 -27.0718,-983.40737 c -14.89,-540.87413 -28.7112,-983.40749 -30.7147,-983.40749 -4.9754,0 -1031.9781,447.29449 -1036.4109,451.39176 -1.9441,1.79751 7.5895,28.29525 21.1862,58.88386 22.2341,50.02087 23.8887,56.22411 16.448,61.66484 -4.5502,3.3271 -10.6548,5.25592 -13.5657,4.2863 -2.9108,-0.96967 -50.1411,-12.1194 -104.9558,-24.77719 l -99.6635,-23.01417 -196.9683,86.00785 c -108.3326,47.30429 -199.0654,88.104719 -201.6283,90.667629 -5.8369,5.837072 -410.45684,1045.978151 -410.45684,1055.146221 0,3.68946 38.862,93.76946 86.35999,200.17776 47.498,106.4088 86.36101,195.1879 86.36203,197.2874 0.003,4.8103 196.89062,111.1143 201.45912,108.7725 4.4455,-2.2789 13.1196,13.4345 10.0883,18.2753 -1.2984,2.0736 -30.9214,16.1859 -65.8286,31.3608 -60.3403,26.2311 -63.1546,28.1087 -57.1013,38.1 3.5017,5.7801 108.9802,240.8235 234.3973,522.319 125.4166,281.4955 228.4862,511.81 229.044,511.81 0.5573,0 287.3659,-300.0375 637.352,-666.75 z m -1259.17496,-604.52 c -2.73101,-3.4925 -39.91305,-84.7628 -82.62569,-180.6011 l -77.65999,-174.25132 212.81389,-548.09133 212.81385,-548.09139 179.8356,-78.49178 179.835,-78.49179 -27.5966,-6.17591 -27.5971,-6.17591 -167.4784,77.41681 c -92.1131,42.57924 -170.1165,79.97886 -173.3413,83.11032 -5.2944,5.14132 -423.39714,1090.69347 -423.39714,1099.29793 0,1.99446 36.0045,81.14257 80.01,175.88497 66.70141,143.606 82.54491,173.8147 95.24999,181.6156 17.62456,10.8209 26.29865,12.2011 19.13789,3.0449 z M 1185.9495,-495.73693 c 147.0508,-67.94317 196.0829,-95.35825 186.9262,-104.51505 -1.1318,-1.13177 -81.5573,33.46907 -178.7235,76.89072 l -176.6656,78.94843 -543.24453,-210.92453 C 175.45731,-771.34592 -70.888127,-866.26195 -73.191907,-866.26195 c -2.30378,0 -5.365496,-2.8575 -6.80466,-6.35 -22.553673,-54.74853 -152.683963,-347.90285 -155.866583,-351.13285 -2.43891,-2.4753 -5.8354,5.4288 -7.71296,17.95 -3.17043,21.1418 0.96824,31.6721 75.21092,191.3738 43.21149,92.95058 79.716368,170.15128 81.122511,171.55712 3.15214,3.15245 1096.645479,422.78141 1103.012179,423.28204 2.5172,0.19812 79.0982,-34.07186 170.18,-76.15509 z m 22.6771,-89.24234 c 103.755,-46.46249 192.2501,-85.48745 196.655,-86.72209 7.6149,-2.13432 116.4508,-197.49485 116.4508,-209.02884 0,-3.02189 4.222,-7.7537 9.3818,-10.51524 8.3886,-4.48935 12.5288,2.17693 39.1083,62.96802 l 29.7272,67.98894 15.5011,-6.57144 c 63.0316,-26.72054 1022.0035,-456.65858 1024.4226,-459.28148 1.6941,-1.8373 -315.7693,-307.3785 -705.4748,-678.9805 l -708.5553,-675.64 -38.7457,-1.4463 c -21.3096,-0.7956 -448.20685,10.0629 -948.66048,24.13 -500.45363,14.0669 -926.4873,25.5763 -946.74227,25.5763 -35.5473,0 -36.73958,0.3973 -34.31743,11.43 1.38023,6.2865 101.08742,237.088 221.57231,512.8921 120.48439,275.8043 219.0628,503.8327 219.0628,506.73 0,7.5748 -0.51359,7.7426 63.16217,-20.6295 47.68545,-21.2474 59.37047,-24.7307 65.07785,-19.3995 5.85622,5.4707 2.79958,24.2192 -19.33956,118.6074 -14.46225,61.6602 -24.60396,114.3955 -22.53742,117.1895 2.06705,2.794 40.96969,90.805 86.44991,195.58 45.480729,104.775 85.273891,193.33845 88.429079,196.80774 5.775451,6.35081 1040.860941,411.30533 1053.792041,412.27317 3.8136,0.28549 91.8246,-37.49573 195.58,-83.95828 z M 3367.9521,2261.0834 c -74.5149,-34.6974 -90.5672,-123.3195 -32.8005,-181.0862 36.6293,-36.6288 79.4248,-44.6461 124.6007,-23.3421 30.2682,14.2738 44.0649,28.3205 57.9933,59.0428 13.6459,30.0995 13.1816,57.787 -1.4905,88.9 -14.2738,30.2682 -28.3205,44.0649 -59.0428,57.9933 -30.102,13.6469 -57.7169,13.1805 -89.2602,-1.5078 z M -7627.347,1597.5379 V 1140.338 h 25.4 25.4 v 457.1999 457.2 h -25.4 -25.4 z m 4030.6198,-535.3343 c -74.515,-34.6976 -90.5673,-123.31959 -32.8007,-181.08625 36.6291,-36.62903 79.4244,-44.64614 124.6006,-23.34209 30.2682,14.27378 44.0649,28.32013 57.9931,59.0427 13.6459,30.09966 13.1817,57.78708 -1.4904,88.90004 -14.2738,30.2682 -28.3201,44.0648 -59.0427,57.9931 -30.1018,13.6469 -57.7169,13.1805 -89.2599,-1.5075 z M 7917.452,-1333.6219 v -457.2 h 25.4 25.4 v 457.2 457.19995 h -25.4 -25.4 z m -13207.9992,119.7875 v -306.9324 l 255.27,-1.6776 c 140.3985,-0.9226 277.905,-0.941 305.57,-0.041 l 50.2999,1.6366 -3.3099,69.0166 c -1.8205,37.9588 -3.31,176.0968 -3.31,306.9731 v 237.95675 h -302.26 -302.26 z m -2753.3598,-5.4875 v -307.34 l 303.53,-3e-4 303.53,-2e-4 -1.1302,262.8902 c -0.6215,144.5897 -1.193,282.89275 -1.27,307.34025 l -0.1398,44.45 h -302.26 -302.26 z m 11305.1791,-761.3943 c -74.5149,-34.6976 -90.5672,-123.3196 -32.8005,-181.0863 36.6293,-36.629 79.4248,-44.6461 124.6007,-23.3421 30.2682,14.2738 44.0649,28.3201 57.9933,59.0427 13.6459,30.0997 13.1816,57.7871 -1.4905,88.9 -14.2738,30.2682 -28.3205,44.0648 -59.0428,57.9931 -30.102,13.6469 -57.7169,13.1805 -89.2602,-1.5074 z m 3921.7598,-736.6 c -40.6969,-18.9504 -68.2198,-60.1849 -68.2198,-102.2057 0,-58.3225 55.9775,-114.3 114.3,-114.3 58.3224,0 114.3,55.9775 114.3,114.3 0,23.3567 -10.7158,51.6993 -27.0287,71.4896 -18.7,22.6867 -59.6158,42.7112 -87.2713,42.7112 -11.176,0 -31.9121,-5.3978 -46.0802,-11.9951 z m -9255.7594,-182.88 c -74.515,-34.6976 -90.5673,-123.3196 -32.8006,-181.0863 36.6294,-36.629 79.4248,-44.6461 124.6007,-23.342 30.2682,14.2737 44.065,28.3201 57.9933,59.0427 13.6459,30.0996 13.1816,57.787 -1.4905,88.9 -14.2738,30.2682 -28.3205,44.0648 -59.0428,57.9931 -30.102,13.6469 -57.7169,13.1805 -89.2601,-1.5075 z m -3221.1613,-501.8 c 1.8379,-50.7399 3.3416,-188.8595 3.3416,-306.9324 v -214.6781 l 255.27,-1.6776 c 140.3985,-0.9226 276.4155,-0.9438 302.26,-0.047 l 46.99,1.6305 v 306.9795 306.9794 h -305.6017 -305.6016 z m -2748.2589,25.4168 c 1.8264,-33.9666 3.3207,-172.2696 3.3207,-307.34 v -245.5824 h 302.26 302.26 v 307.34 307.34 h -305.5807 -305.5807 z m 8814.21999,-173.8567 c -74.51496,-34.6977 -90.56725,-123.3197 -32.80054,-181.0863 36.62934,-36.6291 79.42478,-44.6462 124.60071,-23.3421 30.26816,14.2738 44.06493,28.3201 57.99327,59.0427 13.6459,30.0997 13.18159,57.7871 -1.49047,88.9 -14.27378,30.2682 -28.32049,44.0648 -59.0428,57.9931 -30.10205,13.6469 -57.71693,13.1805 -89.26017,-1.5074 z"
         id="path950" />
      <path
         style="fill:#373737;stroke-width:5.08"
         d="m 4955.8122,3888.6178 v -309.88 h 304.8 304.8 v 309.88 309.88 h -304.8 -304.8 z m 2748.2798,0 v -309.88 h 304.8 304.8 v 309.88 309.88 h -304.8 -304.8 z M -7627.347,1597.5379 V 1140.338 h 25.4 25.4 v 457.1999 457.2 h -25.4 -25.4 z m 8138.07667,195.4799 c -5.86638,-7.0683 15.70787,-111.4689 61.25769,-296.4337 l 14.22755,-57.7738 -79.05952,-170.8262 c -43.48277,-93.9546 -81.59394,-173.5174 -84.69122,-176.8067 -3.09728,-3.2893 -251.30098,-99.98413 -551.56351,-214.87736 L -675.03166,667.40328 -846.7641,747.2783 c -94.45294,43.93128 -173.9499,82.54655 -176.6595,85.81166 -2.7102,3.26517 -12.5827,20.58218 -21.9395,38.48232 -9.3569,17.90014 -36.4648,67.97868 -60.2402,111.28568 -23.7754,43.30704 -53.052,97.59954 -65.059,120.65004 -12.0071,23.0505 -24.413,41.91 -27.5677,41.91 -3.1552,0 -12.3728,-15.4305 -20.4841,-34.29 -8.1107,-18.8595 -25.7642,-57.8375 -39.2303,-86.6177 -13.4655,-28.78013 -24.483,-53.31815 -24.483,-54.52887 0,-2.24297 -103.2027,-235.73896 -146.9898,-332.56345 -73.8698,-163.34613 -73.5838,-162.60348 -65.6448,-170.54281 7.6058,-7.60532 64.4764,3.8638 292.2052,58.92851 l 61.79,14.94094 169.17012,-78.73756 c 93.04324,-43.30563 170.93995,-80.50753 173.10302,-82.6709 5.60476,-5.60461 420.58536,-1089.07636 420.6514,-1098.27812 0.0508,-4.191 -35.72967,-84.65718 -79.46643,-178.81375 l -79.5213,-171.19369 -46.25899,-23.6938 c -25.44216,-13.0316 -58.83147,-31.1011 -74.19847,-40.1543 -47.18558,-27.7989 -181.81878,-99.2244 -187.03238,-99.2244 -2.70663,0 -6.28803,-3.5637 -7.95935,-7.9193 -2.26517,-5.9027 4.3876,-11.1824 26.12644,-20.7342 16.04112,-7.0481 50.8823,-22.7949 77.42529,-34.9929 26.543,-12.1979 127.127,-56.9237 223.51999,-99.3907 96.39299,-42.4669 179.86958,-80.2194 185.5033,-83.8944 5.63372,-3.6749 20.26463,-10.2175 32.51301,-14.539 12.24839,-4.3215 45.78198,-18.3523 74.51954,-31.1795 73.4512,-32.7861 72.20711,-35.4871 42.30217,91.8175 -13.18362,56.1222 -25.23998,110.0284 -26.79141,119.7915 -1.55143,9.7632 -6.56946,32.5629 -11.1506,50.6661 -21.73884,85.9023 -28.68422,57.3008 60.33262,248.4537 43.49546,93.40034 82.067899,171.46246 85.716863,173.47129 3.648964,2.00884 252.781797,97.8506 553.628017,212.98168 l 546.99355,209.32922 166.7464,-77.28072 c 91.7108,-42.50441 169.9163,-79.85826 173.7904,-83.00857 3.8745,-3.15031 11.399,-15.88744 16.7218,-28.30469 5.3228,-12.41724 20.6822,-41.0246 34.1325,-63.57193 33.9974,-56.99125 112.2817,-203.66339 112.2817,-210.36858 0,-3.04099 4.1809,-7.76651 9.2903,-10.50112 8.251,-4.41564 12.3251,1.95946 36.4129,56.97128 14.917,34.06882 32.2159,71.08728 38.4419,82.26328 6.2261,11.176 13.0033,26.035 15.0607,33.02 5.0902,17.28069 144.4767,331.34867 150.1059,338.22044 2.4688,3.01422 10.0624,20.15922 16.8747,38.1 6.8123,17.94073 21.5418,53.06898 32.7325,78.06273 27.6748,61.81146 26.8635,62.27287 -69.7444,39.66819 -40.8289,-9.55329 -103.9525,-23.77287 -140.2745,-31.59902 -36.322,-7.82619 -80.899,-18.26117 -99.06,-23.18893 l -33.02,-8.95954 -167.64,77.60451 c -92.202,42.68252 -170.278,80.16662 -173.5028,83.29808 -5.3396,5.18541 -423.39714,1090.73213 -423.39714,1099.41177 0,2.05709 36.13252,81.42403 80.29448,176.37113 l 80.29397,172.6305 45.99025,22.86 c 25.29433,12.573 49.16983,25.4473 53.05552,28.6096 12.15237,9.8887 199.78062,110.1384 206.23732,110.1928 7.5712,0.061 13.4341,13.9553 8.0051,18.9682 -2.187,2.0188 -21.1217,11.0353 -42.0767,20.0365 -20.955,9.0008 -56.388,25.0074 -78.74,35.5697 -22.352,10.5628 -102.36195,46.068 -177.79995,78.9005 -75.43799,32.8331 -163.44899,71.6123 -195.57998,86.1761 -32.131,14.5639 -72.34072,32.4881 -89.35466,39.8323 -17.01444,7.3436 -43.68749,18.9921 -59.27394,25.8851 -24.18995,10.698 -29.21711,11.4752 -34.3342,5.3091 z M 4950.7322,1485.7779 v -309.88 h 304.8 304.8 v 309.88 309.88 h -304.8 -304.8 z m 2753.3598,0 v -309.88 h 304.8 304.8 v 309.88 309.88 h -304.8 -304.8 z m 213.36,-2819.3998 v -457.2 h 25.4 25.4 v 457.2 457.19995 h -25.4 -25.4 z m -13207.9992,119.7875 v -306.9324 l 255.27,-1.6776 c 140.3985,-0.9226 277.905,-0.941 305.57,-0.041 l 50.2999,1.6366 -3.3099,69.0166 c -1.8205,37.9588 -3.31,176.0968 -3.31,306.9731 v 237.95675 h -302.26 -302.26 z m -2753.3598,-5.4875 v -307.34 l 303.53,-3e-4 303.53,-2e-4 -1.1302,262.8902 c -0.6215,144.5897 -1.193,282.89275 -1.27,307.34025 l -0.1398,44.45 h -302.26 -302.26 z m 2750.0182,-2182.6743 c 1.8379,-50.7399 3.3416,-188.8595 3.3416,-306.9324 v -214.6781 l 255.27,-1.6776 c 140.3985,-0.9226 276.4155,-0.9438 302.26,-0.047 l 46.99,1.6305 v 306.9795 306.9794 h -305.6017 -305.6016 z m -2748.2589,25.4168 c 1.8264,-33.9666 3.3207,-172.2696 3.3207,-307.34 v -245.5824 h 302.26 302.26 v 307.34 307.34 h -305.5807 -305.5807 z"
         id="path948" />
      <path
         style="fill:#292929;stroke-width:5.08"
         d="m 4955.8122,3888.6178 v -309.88 h 304.8 304.8 v 309.88 309.88 h -304.8 -304.8 z m 2748.2798,0 v -309.88 h 304.8 304.8 v 309.88 309.88 h -304.8 -304.8 z M -7627.347,1597.5379 V 1140.338 h 25.4 25.4 v 457.1999 457.2 h -25.4 -25.4 z m 12578.0792,-111.76 v -309.88 h 304.8 304.8 v 309.88 309.88 h -304.8 -304.8 z m 2753.3598,0 v -309.88 h 304.8 304.8 v 309.88 309.88 h -304.8 -304.8 z m 213.36,-2819.3998 v -457.2 h 25.4 25.4 v 457.2 457.19995 h -25.4 -25.4 z m -13207.9992,119.7556 v -306.9642 l 252.73,-1.6458 c 139.0015,-0.9051 275.0185,-0.9172 302.26,-0.025 l 49.53,1.6186 v 306.9914 306.99143 h -302.26 -302.26 v -306.96433 z m -2753.3598,-5.4556 v -307.34 h 301.8556 301.8556 l 1.6744,257.81 c 0.9209,141.7955 0.946,280.09845 0.056,307.33995 l -1.6187,49.53 h -301.9114 -301.9114 z m 2753.3598,-2397.3872 v -306.9673 l 255.27,-1.6427 c 140.3985,-0.9035 276.4155,-0.909 302.26,-0.012 l 46.99,1.6305 v 306.9795 306.9794 h -302.26 -302.26 v -306.9673 z m -2748.2798,-5.4527 v -307.34 h 302.26 302.26 v 307.34 307.34 h -302.26 -302.26 z"
         id="path946" />
    </g>
  </g>
</svg>
