<?xml version="1.0" encoding="UTF-8" standalone="no"?>
<!-- Created with Inkscape (http://www.inkscape.org/) -->

<svg
   width="16540.48mm"
   height="8016.2397mm"
   viewBox="0 0 16540.48 8016.2397"
   version="1.1"
   id="svg5"
   inkscape:version="1.1 (c68e22c387, 2021-05-23)"
   sodipodi:docname="field23.svg"
   xmlns:inkscape="http://www.inkscape.org/namespaces/inkscape"
   xmlns:sodipodi="http://sodipodi.sourceforge.net/DTD/sodipodi-0.dtd"
   xmlns="http://www.w3.org/2000/svg"
   xmlns:svg="http://www.w3.org/2000/svg">
  <sodipodi:namedview
     id="namedview7"
     pagecolor="#ffffff"
     bordercolor="#666666"
     borderopacity="1.0"
     inkscape:pageshadow="2"
     inkscape:pageopacity="0.0"
     inkscape:pagecheckerboard="0"
     inkscape:document-units="mm"
     showgrid="false"
     inkscape:zoom="0.014822998"
     inkscape:cx="19294.343"
     inkscape:cy="13526.279"
     inkscape:window-width="1920"
     inkscape:window-height="1001"
     inkscape:window-x="-9"
     inkscape:window-y="-9"
     inkscape:window-maximized="1"
     inkscape:current-layer="layer1"
     fit-margin-top="0"
     fit-margin-left="0"
     fit-margin-right="0"
     fit-margin-bottom="0" />
  <defs
     id="defs2" />
  <g
     inkscape:label="Layer 1"
     inkscape:groupmode="layer"
     id="layer1"
     transform="translate(8207.1328,3930.813)">
    <g
       id="g1737">
      <path
         style="fill:#ececec;stroke-width:5.08"
         d="M -8207.1328,77.30685 V -3930.813 h 8270.24 8270.24 V 77.30685 4085.4267 h -8270.24 -8270.24 z m 16489.68,2.54 V -3880.013 H 4190.6072 98.6672 V 77.30685 4034.6267 h 3429 3429 v -22.86 -22.86 h 281.94 281.94 v 25.4 25.4 h 381 381 z m -1325.88,3223.25985 v -50.8 h 281.94 281.94 v 50.8 50.8 h -281.94 -281.94 z m 0,-558.7999 v -50.8 h 281.94 281.94 v 50.8 50.7999 h -281.94 -281.94 z m 0,-563.88 v -50.8 h 281.94 281.94 v 50.8 50.8 h -281.94 -281.94 z m 0,-558.8 v -50.8 h 281.94 281.94 v 50.8 50.8 h -281.94 -281.94 z m 0,-563.88 v -50.8 h 281.94 281.94 v 50.8 50.8 h -281.94 -281.94 z m 0,-553.71997 v -50.79999 h 281.94 281.94 v 50.79999 50.8 h -281.94 -281.94 z m -3506.47,-455.89193 36.83,-1.753158 36.83,1.753158 36.83,1.75321 h -73.66 -73.66 z m 3506.47,-102.908045 v -50.799995 h 281.94 281.94 v 50.799995 50.799998 h -281.94 -281.94 z m 0,-563.879975 v -50.8 h 281.94 281.94 v 50.8 50.79999 h -281.94 -281.94 z m 0,-751.83998 v -50.8 h 281.94 281.94 v 50.8 50.8 h -281.94 -281.94 z m -14361.16,5379.7198 v -25.4 h 281.94 281.94 v 25.4 25.4 h 3444.24 3444.24 V 77.30685 -3880.013 h -4102.1 -4102.1 V 77.30685 4034.6267 h 375.92 375.92 z m 0,-711.2 v -50.8 h 281.94 281.94 v 50.8 50.8 h -281.94 -281.94 z m 0,-558.7999 v -50.8 h 281.94 281.94 v 50.8 50.7999 h -281.94 -281.94 z m 0,-563.88 v -50.8 h 281.94 281.94 v 50.8 50.8 h -281.94 -281.94 z m 0,-558.8 v -50.8 h 281.94 281.94 v 50.8 50.8 h -281.94 -281.94 z m 0,-563.88 v -50.8 h 281.94 281.94 v 50.8 50.8 h -281.94 -281.94 z m 0,-553.71997 v -50.79999 h 281.94 281.94 v 50.79999 50.8 h -281.94 -281.94 z m 4062.821,-450.721607 16.601,-2.055673 13.879,2.107489 13.879,2.107539 -30.48,-0.05182 -30.48,-0.05182 16.601,-2.055673 z m -4062.821,-108.078368 v -50.799995 h 281.94 281.94 v 50.799995 50.7999982 h -281.94 -281.94 z m 0,-563.879975 v -50.8 h 281.94 281.94 v 50.8 50.79999 h -281.94 -281.94 z m 0,-751.83998 v -50.8 h 281.94 281.94 v 50.8 50.8 h -281.94 -281.94 z"
         id="path1749" />
      <path
         style="fill:#bdbdbd;stroke-width:5.08"
         d="m -7059.0528,-1273.9731 v -50.8 h 109.22 109.22 v 50.8 50.8 h -109.22 -109.22 z m 269.24,-43.18 v -93.98 h -25.4 -25.4 v -7.62 -7.62 h -109.22 -109.22 v -101.6 -101.6 h 1079.5 1079.5 v 203.2 203.2 h -944.88 -944.88 z m 11805.92,-109.22 v -203.2 h 1092.2 1092.2 v 104.14 104.14 h -121.92 -121.92 v 5.08 5.08 h -25.4 -25.4 v 93.98 93.98 h -944.88 -944.88 z m 1940.56,154.94 v -48.26 h 121.92 121.92 v 48.26 48.26 h -121.92 -121.92 z"
         id="path1747" />
      <path
         style="fill:#717171;stroke-width:5.08"
         d="m 1250.8747,3274.2366 6.6675,-2.668 3.0693,3.0688 3.0689,3.0693 -9.7364,-0.4013 -9.7368,-0.4013 6.6675,-2.668 z m 30.48,0 6.6675,-2.668 3.0693,3.0688 3.0689,3.0693 -9.7364,-0.4013 -9.7368,-0.4013 6.6675,-2.668 z m -2433.32,-5.08 6.6675,-2.668 3.0693,3.0688 3.0689,3.0693 -9.7364,-0.4013 -9.7368,-0.4013 6.6675,-2.668 z m 30.48,0 6.6675,-2.668 3.0693,3.0688 3.0689,3.0693 -9.7364,-0.4013 -9.7368,-0.4013 6.6675,-2.668 z m 8454.0725,-245.4499 v -228.6 h 474.98 474.98 v 228.6 228.6 h -474.98 -474.98 z m -15488.92,-5.08 v -228.6 h 474.98 474.98 v 228.6 228.6 h -474.98 -474.98 z m 9312.0408,159.5969 0.4013,-9.7369 2.668,6.6675 2.6681,6.6675 -3.0689,3.0694 -3.0693,3.0688 0.4013,-9.7363 z m 223.52,0 0.4013,-9.7369 2.668,6.6675 2.6681,6.6675 -3.0689,3.0694 -3.0693,3.0688 0.4013,-9.7363 z m -2626.36,-5.08 0.4013,-9.7369 2.668,6.6675 2.6681,6.6675 -3.0689,3.0694 -3.0693,3.0688 0.4013,-9.7363 z m 223.52,0 0.4013,-9.7369 2.668,6.6675 2.6681,6.6675 -3.0689,3.0694 -3.0693,3.0688 0.4013,-9.7363 z m 2179.32,-25.4 0.4013,-9.7369 2.668,6.6675 2.6681,6.6675 -3.0689,3.0694 -3.0693,3.0688 0.4013,-9.7363 z m 223.52,0 0.4013,-9.7369 2.668,6.6675 2.6681,6.6675 -3.0689,3.0694 -3.0693,3.0688 0.4013,-9.7363 z m -2626.36,-5.08 0.4013,-9.7369 2.668,6.6675 2.6681,6.6675 -3.0689,3.0694 -3.0693,3.0688 0.4013,-9.7363 z m 223.52,0 0.4013,-9.7369 2.668,6.6675 2.6681,6.6675 -3.0689,3.0694 -3.0693,3.0688 0.4013,-9.7363 z m 2274.4867,-91.947 6.6675,-2.668 3.0693,3.0688 3.0689,3.0693 -9.7364,-0.4013 -9.7368,-0.4013 6.6675,-2.668 z m 30.48,0 6.6675,-2.668 3.0693,3.0688 3.0689,3.0693 -9.7364,-0.4013 -9.7368,-0.4013 6.6675,-2.668 z m -2433.32,-5.08 6.6675,-2.668 3.0693,3.0688 3.0689,3.0693 -9.7364,-0.4013 -9.7368,-0.4013 6.6675,-2.668 z m 30.48,0 6.6675,-2.668 3.0693,3.0688 3.0689,3.0693 -9.7364,-0.4013 -9.7368,-0.4013 6.6675,-2.668 z M -4935.6128,1337.1468 V 102.70685 h 614.68 614.68 v 1234.43995 1234.44 h -614.68 -614.68 z m 8747.76,0 V 102.70685 h 614.68 614.68 v 1234.43995 1234.44 h -614.68 -614.68 z m -2561.2725,712.8098 6.6675,-2.668 3.0693,3.0688 3.0689,3.0694 -9.7364,-0.4013 -9.7368,-0.4014 6.6675,-2.668 z m 30.48,0 6.6675,-2.668 3.0693,3.0688 3.0689,3.0694 -9.7364,-0.4013 -9.7368,-0.4014 6.6675,-2.668 z m -2433.32,-5.08 6.6675,-2.668 3.0693,3.0688 3.0689,3.0694 -9.7364,-0.4013 -9.7368,-0.4014 6.6675,-2.668 z m 30.48,0 6.6675,-2.668 3.0693,3.0688 3.0689,3.0694 -9.7364,-0.4013 -9.7368,-0.4014 6.6675,-2.668 z m 2277.1933,-90.933 0.4013,-9.7368 2.668,6.6675 2.6681,6.6675 -3.0689,3.0693 -3.0693,3.0688 0.4013,-9.7363 z m 223.52,0 0.4013,-9.7368 2.668,6.6675 2.6681,6.6675 -3.0689,3.0693 -3.0693,3.0688 0.4013,-9.7363 z m -2626.36,-5.08 0.4013,-9.7368 2.668,6.6675 2.6681,6.6675 -3.0689,3.0693 -3.0693,3.0688 0.4013,-9.7363 z m 223.52,0 0.4013,-9.7368 2.668,6.6675 2.6681,6.6675 -3.0689,3.0693 -3.0693,3.0688 0.4013,-9.7363 z m 2179.32,-25.4 0.4013,-9.7368 2.668,6.6675 2.6681,6.6675 -3.0689,3.0693 -3.0693,3.0688 0.4013,-9.7363 z m 223.52,0 0.4013,-9.7368 2.668,6.6675 2.6681,6.6675 -3.0689,3.0693 -3.0693,3.0688 0.4013,-9.7363 z m -2626.36,-5.08 0.4013,-9.7368 2.668,6.6675 2.6681,6.6675 -3.0689,3.0693 -3.0693,3.0688 0.4013,-9.7363 z m 223.52,0 0.4013,-9.7368 2.668,6.6675 2.6681,6.6675 -3.0689,3.0693 -3.0693,3.0688 0.4013,-9.7363 z m 2274.4867,-91.947 6.6675,-2.668 3.0693,3.0688 3.0689,3.0694 -9.7364,-0.4013 -9.7368,-0.4014 6.6675,-2.668 z m 30.48,0 6.6675,-2.668 3.0693,3.0688 3.0689,3.0694 -9.7364,-0.4013 -9.7368,-0.4014 6.6675,-2.668 z m -2433.32,-5.08 6.6675,-2.668 3.0693,3.0688 3.0689,3.0694 -9.7364,-0.4013 -9.7368,-0.4014 6.6675,-2.668 z m 30.48,0 6.6675,-2.668 3.0693,3.0688 3.0689,3.0694 -9.7364,-0.4013 -9.7368,-0.4014 6.6675,-2.668 z m 8454.0725,-481.6698 v -231.14 h 474.98 474.98 v 231.14 231.14 h -474.98 -474.98 z m -15488.92,-5.08 v -231.14 h 474.98 474.98 v 231.14 231.14 h -474.98 -474.98 z m 9407.2075,-508.93018 6.6675,-2.66811 3.0693,3.06913 3.0689,3.06918 -9.7364,-0.40081 -9.7368,-0.40081 6.6675,-2.66812 z m 30.48,0 6.6675,-2.66811 3.0693,3.06913 3.0689,3.06918 -9.7364,-0.40081 -9.7368,-0.40081 6.6675,-2.66812 z m -2433.32,-5.08 6.6675,-2.66811 3.0693,3.06913 3.0689,3.06918 -9.7364,-0.40081 -9.7368,-0.40081 6.6675,-2.66812 z m 30.48,0 6.6675,-2.66811 3.0693,3.06913 3.0689,3.06918 -9.7364,-0.40081 -9.7368,-0.40081 6.6675,-2.66812 z m 2277.1933,-90.93311 0.4013,-9.73668 2.668,6.6675 2.6681,6.6675 -3.0689,3.06918 -3.0693,3.06913 0.4013,-9.73663 z m 223.52,0 0.4013,-9.73668 2.668,6.6675 2.6681,6.6675 -3.0689,3.06918 -3.0693,3.06913 0.4013,-9.73663 z m -2626.36,-5.08 0.4013,-9.73668 2.668,6.6675 2.6681,6.6675 -3.0689,3.06918 -3.0693,3.06913 0.4013,-9.73663 z m 223.52,0 0.4013,-9.73668 2.668,6.6675 2.6681,6.6675 -3.0689,3.06918 -3.0693,3.06913 0.4013,-9.73663 z m 2179.32,-25.4 0.4013,-9.73668 2.668,6.6675 2.6681,6.6675 -3.0689,3.06918 -3.0693,3.06913 0.4013,-9.73663 z m 223.52,0 0.4013,-9.73668 2.668,6.6675 2.6681,6.6675 -3.0689,3.06918 -3.0693,3.06913 0.4013,-9.73663 z m -2626.36,-5.08 0.4013,-9.73668 2.668,6.6675 2.6681,6.6675 -3.0689,3.06918 -3.0693,3.06913 0.4013,-9.73663 z m 223.52,0 0.4013,-9.73668 2.668,6.6675 2.6681,6.6675 -3.0689,3.06918 -3.0693,3.06913 0.4013,-9.73663 z m 2274.4867,-91.94688 6.6675,-2.66812 3.0693,3.06914 3.0689,3.06918 -9.7364,-0.40081 -9.7368,-0.40081 6.6675,-2.66812 z m 30.48,0 6.6675,-2.66812 3.0693,3.06914 3.0689,3.06918 -9.7364,-0.40081 -9.7368,-0.40081 6.6675,-2.66812 z m -2433.32,-5.08 6.6675,-2.66812 3.0693,3.06914 3.0689,3.06918 -9.7364,-0.40081 -9.7368,-0.40081 6.6675,-2.66812 z m 30.48,0 6.6675,-2.66812 3.0693,3.06914 3.0689,3.06918 -9.7364,-0.40081 -9.7368,-0.40081 6.6675,-2.66812 z m 8454.0725,-933.78976 v -231.14 h 474.98 474.98 v 231.14 231.13999 h -474.98 -474.98 z m -15488.92,-5.08 v -231.14 h 474.98 474.98 v 231.14 231.13999 h -474.98 -474.98 z m 9417.3675,-51.7302 6.6675,-2.66812 3.0693,3.06913 3.0689,3.06919 -9.7364,-0.40081 -9.7368,-0.40082 6.6675,-2.66811 z m 30.48,0 6.6675,-2.66812 3.0693,3.06913 3.0689,3.06919 -9.7364,-0.40081 -9.7368,-0.40082 6.6675,-2.66811 z m -2433.32,-5.08 6.6675,-2.66812 3.0693,3.06913 3.0689,3.06919 -9.7364,-0.40081 -9.7368,-0.40082 6.6675,-2.66811 z m 30.48,0 6.6675,-2.66812 3.0693,3.06913 3.0689,3.06919 -9.7364,-0.40081 -9.7368,-0.40082 6.6675,-2.66811 z m 2277.1933,-90.93312 0.4013,-9.73668 2.668,6.6675 2.6681,6.6675 -3.0689,3.06918 -3.0693,3.06914 0.4013,-9.73664 z m 223.52,0 0.4013,-9.73668 2.668,6.6675 2.6681,6.6675 -3.0689,3.06918 -3.0693,3.06914 0.4013,-9.73664 z m -2626.36,-5.07999 0.4013,-9.73669 2.668,6.6675 2.6681,6.6675 -3.0689,3.06918 -3.0693,3.06914 0.4013,-9.73663 z m 223.52,0 0.4013,-9.73669 2.668,6.6675 2.6681,6.6675 -3.0689,3.06918 -3.0693,3.06914 0.4013,-9.73663 z m 2179.32,-25.4 0.4013,-9.73669 2.668,6.6675 2.6681,6.6675 -3.0689,3.06919 -3.0693,3.06913 0.4013,-9.73663 z m 223.52,0 0.4013,-9.73669 2.668,6.6675 2.6681,6.6675 -3.0689,3.06919 -3.0693,3.06913 0.4013,-9.73663 z m -2626.36,-5.08 0.4013,-9.73669 2.668,6.6675 2.6681,6.6675 -3.0689,3.06919 -3.0693,3.06913 0.4013,-9.73663 z m 223.52,0 0.4013,-9.73669 2.668,6.6675 2.6681,6.6675 -3.0689,3.06919 -3.0693,3.06913 0.4013,-9.73663 z m 2274.4867,-91.94688 6.6675,-2.66812 3.0693,3.06913 3.0689,3.06919 -9.7364,-0.40082 -9.7368,-0.40081 6.6675,-2.66812 z m 30.48,0 6.6675,-2.66812 3.0693,3.06913 3.0689,3.06919 -9.7364,-0.40082 -9.7368,-0.40081 6.6675,-2.66812 z m -2433.32,-5.08 6.6675,-2.66812 3.0693,3.06913 3.0689,3.06919 -9.7364,-0.40082 -9.7368,-0.40081 6.6675,-2.66812 z m 30.48,0 6.6675,-2.66812 3.0693,3.06913 3.0689,3.06919 -9.7364,-0.40082 -9.7368,-0.40081 6.6675,-2.66812 z"
         id="path1745" />
      <path
         style="fill:#0047a6;stroke-width:5.08"
         d="m -8156.3328,3640.9267 v -393.7 h 375.92 375.92 v 50.8 50.8 h 83.82 83.82 v 317.5 317.5 h -83.82 -83.82 v 25.4 25.4 h -375.92 -375.92 z m 1315.72,-2329.1799 v -2722.8799 h 25.4 25.4 v 2722.8799 2722.8799 h -25.4 -25.4 z m 3489.96,756.92 V 102.70685 h -774.7 -774.7 v -764.53997 -764.53998 h 25.4 25.4 v 739.13998 739.139971 h 774.7 774.7 V 2043.2668 4034.6267 h -25.4 -25.4 z m -4805.68,416.56 v -304.8 h 375.92 375.92 v 22.86 22.86 h 81.28 81.28 v 231.14 231.14 h -81.28 -81.28 v 50.8 50.7999 h -375.92 -375.92 z m 0,-2291.07995 v -304.79999 h 375.92 375.92 v 50.799995 50.7999982 h 81.28 81.28 v 228.5999868 228.6 h -81.28 -81.28 v 25.4 25.39999 h -375.92 -375.92 z m 0,-1193.79996 v -426.71999 h 375.92 375.92 v 50.8 50.8 h 86.36 86.36 v 325.11999 325.11999 h -86.36 -86.36 v 50.8 50.79999 h -375.92 -375.92 z m 13121.64,-1046.47999 v -619.7599 h -1676.4 -1676.4 v -607.06 -607.06 h 25.4 25.4 v 581.66 581.66 h 1676.4 1676.4 v 645.1599 645.16 h -25.4 -25.4 z"
         id="path1743" />
      <path
         style="fill:#a1000f;stroke-width:5.08"
         d="m 7520.5472,4014.3067 v -25.4 h -78.74 -78.74 v -317.5 -317.5 h 78.74 78.74 v -50.8 -50.8 h 381 381 v 393.7 393.7 h -381 -381 z M 3415.9072,2043.2668 V 51.906851 h 774.7 774.7 V -687.23312 -1426.3731 h 25.4 25.4 v 764.53998 764.53997 h -774.7 -774.7 V 2068.6668 4034.6267 h -25.4 -25.4 z m 3489.96,-731.52 v -2722.8799 h 25.4 25.4 v 2722.8799 2722.8799 h -25.4 -25.4 z m 614.68,1432.56 v -50.8 h -76.2 -76.2 v -231.14 -231.14 h 76.2 76.2 v -22.86 -22.86 h 381 381 v 304.8 304.7999 h -381 -381 z m 0,-2265.67997 v -25.39999 h -76.2 -76.2 v -228.6 -228.599987 h 76.2 76.2 v -50.799998 -50.799995 h 381 381 v 304.79999 304.79998 h -381 -381 z m 0,-1097.27995 v -50.8 h -81.28 -81.28 v -325.11999 -325.11999 h 81.28 81.28 v -50.8 -50.8 h 381 381 v 426.71999 426.71998 h -381 -381 z m -12420.6,-1452.87998 v -645.1599 h 1676.4 1676.4 v -581.66 -581.66 h 25.4 25.4 v 607.06 607.06 h -1676.4 -1676.4 v 619.7599 619.76 h -25.4 -25.4 z"
         id="path1741" />
      <path
         style="fill:#272727;stroke-width:5.08"
         d="m -4371.7328,3303.1067 v -731.5199 h 76.2 76.2 v 731.5199 731.52 h -76.2 -76.2 z m 8742.68,0 v -731.5199 h 76.2 76.2 v 731.5199 731.52 h -76.2 -76.2 z m -3129.7677,-32.389 -23.3482,-6.283 -14.2697,-11.2247 -14.2697,-11.2248 -11.6175,-15.746 -11.6169,-15.7465 -5.0841,-23.7053 -5.084,-23.7058 5.0495,-22.6974 5.049,-22.6975 12.3571,-17.78 12.3571,-17.78 16.5928,-11.1587 16.5923,-11.1592 22.6974,-5.0597 22.6975,-5.0602 23.7058,5.0841 23.7053,5.084 15.7465,11.617 15.746,11.6174 11.1699,14.1996 11.1694,14.2002 6.5318,25.1805 6.5319,25.1806 -5.2157,24.3205 -5.2161,24.3199 -11.6169,15.7465 -11.6175,15.746 -12.89,10.1392 -12.8895,10.1391 -12.0279,4.4704 -12.0279,4.4709 -17.78,2.8977 -17.78,2.8981 z m -2402.84,-5.08 -23.3482,-6.283 -14.2697,-11.2247 -14.2697,-11.2248 -11.6175,-15.746 -11.6169,-15.7465 -5.0841,-23.7053 -5.084,-23.7058 5.0495,-22.6974 5.049,-22.6975 12.3571,-17.78 12.3571,-17.78 16.5928,-11.1587 16.5923,-11.1592 22.6974,-5.0597 22.6975,-5.0602 23.7058,5.0841 23.7053,5.084 15.7465,11.617 15.746,11.6174 11.1699,14.1996 11.1694,14.2002 6.5318,25.1805 6.5319,25.1806 -5.2157,24.3205 -5.2161,24.3199 -11.6169,15.7465 -11.6175,15.746 -12.89,10.1392 -12.8895,10.1391 -12.0279,4.4704 -12.0279,4.4709 -17.78,2.8977 -17.78,2.8981 z M -5296.2928,1337.1468 V 102.70685 h 180.34 180.34 v 1234.43995 1234.44 h -180.34 -180.34 z m 1590.04,0 V 102.70685 h 177.8 177.8 v 1234.43995 1234.44 h -177.8 -177.8 z m 7172.96,0 V 102.70685 h 172.72 172.72 v 1234.43995 1234.44 h -172.72 -172.72 z m 1574.8,0 V 102.70685 h 180.34 180.34 v 1234.43995 1234.44 h -180.34 -180.34 z m 2479.04,820.42 v -27.94 h -76.2 -76.2 v -228.6 -228.6 h 76.2 76.2 v -50.8 -50.8 h 381 381 v 307.34 307.34 h -381 -381 z m -15676.88,-284.48 v -307.34 h 375.92 375.92 v 50.8 50.8 h 81.28 81.28 v 228.6 228.6 h -81.28 -81.28 v 27.94 27.94 h -375.92 -375.92 z m 9397.5123,173.3509 -23.3482,-6.2829 -14.2697,-11.2248 -14.2697,-11.2248 -11.6175,-15.7459 -11.6169,-15.7465 -5.0841,-23.7053 -5.084,-23.7058 5.0495,-22.6975 5.049,-22.6974 12.3571,-17.78 12.3571,-17.78 16.5928,-11.1587 16.5923,-11.1593 22.6974,-5.0597 22.6975,-5.0601 23.7058,5.084 23.7053,5.0841 15.7465,11.6169 15.746,11.6175 11.1699,14.1996 11.1694,14.2001 6.5318,25.1806 6.5319,25.1805 -5.2157,24.3205 -5.2161,24.32 -11.6169,15.7465 -11.6175,15.7459 -12.89,10.1392 -12.8895,10.1392 -12.0279,4.4704 -12.0279,4.4709 -17.78,2.8976 -17.78,2.8982 z m -2402.84,-5.08 -23.3482,-6.2829 -14.2697,-11.2248 -14.2697,-11.2248 -11.6175,-15.7459 -11.6169,-15.7465 -5.0841,-23.7053 -5.084,-23.7058 5.0495,-22.6975 5.049,-22.6974 12.3571,-17.78 12.3571,-17.78 16.5928,-11.1587 16.5923,-11.1593 22.6974,-5.0597 22.6975,-5.0601 23.7058,5.084 23.7053,5.0841 15.7465,11.6169 15.746,11.6175 11.1699,14.1996 11.1694,14.2001 6.5318,25.1806 6.5319,25.1805 -5.2157,24.3205 -5.2161,24.32 -11.6169,15.7465 -11.6175,15.7459 -12.89,10.1392 -12.8895,10.1392 -12.0279,4.4704 -12.0279,4.4709 -17.78,2.8976 -17.78,2.8982 z m 8682.2077,-983.6109 v -50.8 h -76.2 -76.2 V 780.88682 554.82683 h 76.2 76.2 v -25.4 -25.4 h 381 381 v 302.25999 302.25998 h -381 -381 z M -8156.3328,801.20682 V 498.94683 h 375.92 375.92 v 25.4 25.4 h 81.28 81.28 v 226.05999 226.05998 h -81.28 -81.28 v 50.8 50.8 h -375.92 -375.92 z m 9397.5123,20.95084 -23.3482,-6.28305 -14.2697,-11.22461 -14.2697,-11.22462 -11.6175,-15.74627 -11.6169,-15.74632 -5.0841,-23.70547 -5.084,-23.70546 5.0495,-22.69749 5.049,-22.69754 12.3571,-17.78 12.3571,-17.78 16.5928,-11.15888 16.5923,-11.15888 22.6974,-5.05999 22.6975,-5.05998 23.7058,5.08391 23.7053,5.08391 15.7465,11.6173 15.746,11.61725 11.1699,14.19982 11.1694,14.19982 6.5318,25.18074 6.5319,25.1807 -5.2157,24.32014 -5.2161,24.3201 -11.6169,15.74632 -11.6175,15.74627 -12.89,10.13917 -12.8895,10.13912 -12.0279,4.47061 -12.0279,4.47055 -17.78,2.89794 -17.78,2.89793 z m -2402.84,-5.08 -23.3482,-6.28305 -14.2697,-11.22461 -14.2697,-11.22462 -11.6175,-15.74627 -11.6169,-15.74632 -5.0841,-23.70547 -5.084,-23.70546 5.0495,-22.69749 5.049,-22.69754 12.3571,-17.78 12.3571,-17.78 16.5928,-11.15888 16.5923,-11.15888 22.6974,-5.05999 22.6975,-5.05998 23.7058,5.08391 23.7053,5.08391 15.7465,11.6173 15.746,11.61725 11.1699,14.19982 11.1694,14.19982 6.5318,25.18074 6.5319,25.1807 -5.2157,24.32014 -5.2161,24.3201 -11.6169,15.74632 -11.6175,15.74627 -12.89,10.13917 -12.8895,10.13912 -12.0279,4.47061 -12.0279,4.47055 -17.78,2.89794 -17.78,2.89793 z m 2413,-1214.11996 -23.3482,-6.28304 -14.2697,-11.22462 -14.2697,-11.22461 -11.6175,-15.74628 -11.6169,-15.74632 -5.0841,-23.70546 -5.084,-23.70547 5.0495,-22.69749 5.049,-22.69754 12.3571,-17.78 12.3571,-17.78 16.5928,-11.15888 16.5923,-11.15888 22.6974,-5.05998 22.6975,-5.05998 23.7058,5.08391 23.7053,5.08391 15.7465,11.6173 15.746,11.61725 11.1699,14.19981 11.1694,14.19982 6.5318,25.18075 6.5319,25.1807 -5.2157,24.32014 -5.2161,24.32009 -11.6169,15.74632 -11.6175,15.74628 -12.89,10.13917 -12.8895,10.13912 -12.0279,4.4706 -12.0279,4.47055 -17.78,2.89794 -17.78,2.89794 z m -2402.84,-5.08 -23.3482,-6.28304 -14.2697,-11.22462 -14.2697,-11.22461 -11.6175,-15.74628 -11.6169,-15.74632 -5.0841,-23.70546 -5.084,-23.70547 5.0495,-22.69749 5.049,-22.69754 12.3571,-17.78 12.3571,-17.77999 16.5928,-11.15888 16.5923,-11.15888 22.6974,-5.05999 22.6975,-5.05998 23.7058,5.08391 23.7053,5.08391 15.7465,11.6173 15.746,11.61725 11.1699,14.19981 11.1694,14.19982 6.5318,25.18075 6.5319,25.1807 -5.2157,24.32014 -5.2161,24.32009 -11.6169,15.74632 -11.6175,15.74628 -12.89,10.13917 -12.8895,10.13912 -12.0279,4.4706 -12.0279,4.47055 -17.78,2.89794 -17.78,2.89794 z"
         id="path1739" />
    </g>
  </g>
</svg>
